<?xml version="1.0" encoding="UTF-8"?>
<svg version="1.1" xmlns="http://www.w3.org/2000/svg" width="6000" height="813">
<path d="M0 0 C1978.02 0 3956.04 0 5994 0 C5994 204.93 5994 409.86 5994 621 C5990.04 621 5986.08 621 5982 621 C5982 641.79 5982 662.58 5982 684 C5985.96 684 5989.92 684 5994 684 C5994 725.58 5994 767.16 5994 810 C4015.98 810 2037.96 810 0 810 C0 768.42 0 726.84 0 684 C3.63 684 7.26 684 11 684 C11 663.21 11 642.42 11 621 C7.37 621 3.74 621 0 621 C0 416.07 0 211.14 0 0 Z " fill="#ED1C24" transform="translate(3,0)"/>
<path d="M0 0 C1977.69 0 3955.38 0 5993 0 C5993 40.92 5993 81.84 5993 124 C4015.31 124 2037.62 124 0 124 C0 83.08 0 42.16 0 0 Z " fill="#8A8A8C" transform="translate(3,685)"/>
<path d="M0 0 C0.33 0 0.66 0 1 0 C1 204.93 1 409.86 1 621 C-2.96 621 -6.92 621 -11 621 C-11 641.79 -11 662.58 -11 684 C-7.04 684 -3.08 684 1 684 C1 725.58 1 767.16 1 810 C-1977.02 810 -3955.04 810 -5993 810 C-5993 809.67 -5993 809.34 -5993 809 C-4015.31 809 -2037.62 809 0 809 C0 768.08 0 727.16 0 685 C-1977.69 685 -3955.38 685 -5993 685 C-5993 684.67 -5993 684.34 -5993 684 C-5989.37 684 -5985.74 684 -5982 684 C-5982 663.21 -5982 642.42 -5982 621 C-5985.63 621 -5989.26 621 -5993 621 C-5993 620.67 -5993 620.34 -5993 620 C-4015.31 620 -2037.62 620 0 620 C0 415.4 0 210.8 0 0 Z " fill="#FDFDFC" transform="translate(5996,0)"/>
<path d="M0 0 C60.39 0 120.78 0 183 0 C183 12.54 183 25.08 183 38 C169.14 38 155.28 38 141 38 C141 38.66 141 39.32 141 40 C141.80380096 40.3153344 141.80380096 40.3153344 142.62384033 40.63703918 C145.91656192 42.52573823 148.37678095 45.12372827 151.01855469 47.80737305 C151.61100983 48.40114243 152.20346497 48.9949118 152.81387329 49.60667419 C154.771177 51.57046711 156.72140636 53.54113904 158.671875 55.51171875 C160.03653701 56.88265538 161.40171826 58.25307532 162.76739502 59.6230011 C166.36558777 63.23450128 169.95818208 66.85151531 173.54919434 70.47015381 C179.28106811 76.24510645 185.0195376 82.01348374 190.76145172 87.77845192 C192.75786035 89.78500584 194.75077232 91.79498357 196.74334717 93.80534363 C202.16784001 99.26560853 207.56531057 104.67923069 213.43682861 109.66514587 C215.56036249 111.47851579 217.53381816 113.42080112 219.5 115.40234375 C220.61181641 116.51899414 220.61181641 116.51899414 221.74609375 117.65820312 C222.48988281 118.41037109 223.23367188 119.16253906 224 119.9375 C224.77472656 120.71673828 225.54945312 121.49597656 226.34765625 122.29882812 C228.23410757 124.1969242 230.11816245 126.09733149 232 128 C230.40091024 131.96112693 227.65051808 134.6250638 224.66748047 137.57543945 C224.12408524 138.12073303 223.58069 138.66602661 223.02082825 139.22784424 C221.22446267 141.02791141 219.42099955 142.82067849 217.6171875 144.61328125 C216.36089192 145.86838374 215.10496686 147.12385721 213.84939575 148.37968445 C211.2145281 151.01298787 208.57633642 153.64289926 205.93554688 156.27026367 C202.5682616 159.62063809 199.2075166 162.97747754 195.84905815 166.33669758 C193.25323708 168.9322451 190.6548048 171.52516531 188.05551529 174.117239 C186.81670541 175.35288848 185.57848109 176.58912534 184.34087753 177.82598305 C178.64363384 183.51604185 172.96776579 189.15102113 166.84085083 194.38252258 C163.25397771 197.5341556 159.92537683 200.95300315 156.5625 204.33984375 C155.79695801 205.10680069 155.03141602 205.87375763 154.24267578 206.66395569 C151.82606803 209.08610881 149.41298274 211.51173612 147 213.9375 C145.35049314 215.59202893 143.70075571 217.24632802 142.05078125 218.90039062 C138.03118629 222.93094202 134.01446831 226.96434272 130 231 C131.26912134 233.77571897 132.57351447 235.823191 134.73025513 237.97749329 C135.2851915 238.53662415 135.84012787 239.095755 136.41188049 239.67182922 C137.32199135 240.57351082 137.32199135 240.57351082 138.25048828 241.4934082 C139.21188469 242.45765213 139.21188469 242.45765213 140.19270325 243.44137573 C142.31371745 245.56609521 144.44185073 247.68352452 146.5703125 249.80078125 C148.05081041 251.2800864 149.53093813 252.75976212 151.01071167 254.23979187 C154.11636195 257.34387736 157.2253437 260.44457372 160.33691406 263.54272461 C164.30954552 267.49843314 168.27563025 271.46062468 172.23942757 275.4251833 C175.29847933 278.48396187 178.36014066 281.54011716 181.42266464 284.59541893 C182.88476427 286.05435274 184.34627343 287.51387856 185.80716324 288.97402382 C187.85999885 291.02466977 189.91610817 293.07197717 191.97314453 295.1184082 C192.56773972 295.71345657 193.1623349 296.30850494 193.77494812 296.92158508 C197.45298458 300.57219019 201.2541078 304.03097798 205.18423271 307.40896225 C207.99373763 309.87074709 210.6231284 312.49865399 213.25 315.15234375 C214.06537231 315.96983849 214.06537231 315.96983849 214.8972168 316.80384827 C216.60054815 318.51269217 218.30033326 320.22501197 220 321.9375 C221.16773374 323.11026009 222.33570074 324.28278798 223.50390625 325.45507812 C226.33863234 328.30071689 229.17018824 331.14947453 232 334 C230.58519561 337.21095864 228.88922166 339.35915945 226.41162109 341.83129883 C225.67680511 342.56919144 224.94198914 343.30708405 224.18490601 344.06733704 C223.3891214 344.85593613 222.59333679 345.64453522 221.7734375 346.45703125 C220.95179108 347.27821945 220.13014465 348.09940765 219.28359985 348.94548035 C217.54250483 350.68355424 215.79898001 352.41919699 214.05322266 354.15258789 C211.40086111 356.7868157 208.75646643 359.42883374 206.11328125 362.07226562 C204.41713538 363.76349104 202.72053502 365.45426079 201.0234375 367.14453125 C200.23979828 367.92705765 199.45615906 368.70958405 198.64877319 369.51582336 C195.20325782 372.93217456 191.7393346 376.27321104 188.05908203 379.43652344 C183.14447285 383.67477582 178.60460227 388.2708391 174.03125 392.87109375 C173.11033569 393.793423 172.18942139 394.71575226 171.24060059 395.66603088 C168.81852446 398.09188477 166.39946921 400.52072852 163.9810791 402.95025635 C161.50226167 405.43939112 159.02055963 407.92564655 156.5390625 410.41210938 C151.68961665 415.2716751 146.84494492 420.13593029 142 425 C162.295 425.495 162.295 425.495 183 426 C183 438.54 183 451.08 183 464 C122.61 464 62.22 464 0 464 C0 403.94 0 343.88 0 282 C12.87 282 25.74 282 39 282 C39 293.22 39 304.44 39 316 C44.02939217 311.59928185 48.88001289 307.26182522 53.56445312 302.53320312 C54.16724594 301.92895004 54.77003876 301.32469696 55.39109802 300.70213318 C56.68474646 299.40471291 57.97723982 298.10614004 59.2686615 296.8065033 C61.31897573 294.74328687 63.37251866 292.68333188 65.42687988 290.62414551 C69.78741743 286.25224641 74.14400401 281.87642354 78.5 277.5 C83.55248326 272.42382299 88.60662342 267.34931871 93.6650238 262.27903748 C95.67659187 260.26104282 97.68509595 258.24003341 99.69348145 256.21887207 C110.72199983 245.1469227 110.72199983 245.1469227 116.52624512 240.26902771 C118.54830542 238.52786262 120.28333327 236.60104174 122 234.5625 C122.5775 233.88316406 123.155 233.20382812 123.75 232.50390625 C124.1625 232.00761719 124.575 231.51132812 125 231 C124.410579 230.73575729 123.82115801 230.47151459 123.21387577 230.19926453 C120.91455708 228.95371526 119.41679082 227.66075062 117.57798767 225.81176758 C116.92052048 225.15560455 116.26305328 224.49944153 115.58566284 223.82339478 C114.87539948 223.10436981 114.16513611 222.38534485 113.43334961 221.64453125 C112.67680588 220.88667328 111.92026215 220.12881531 111.14079285 219.34799194 C108.64001769 216.84072332 106.14628879 214.32656092 103.65234375 211.8125 C101.91697697 210.07086345 100.18109447 208.32974064 98.44471741 206.58911133 C93.87301471 202.00409846 89.30690887 197.41355528 84.74237061 192.82141113 C77.43349245 185.46943199 70.11790894 178.12414009 62.79907417 170.78207397 C60.24019977 168.21295751 57.68475554 165.64046468 55.12962341 163.06762695 C53.56561605 161.49679289 52.00149947 159.92606756 50.43725586 158.35546875 C49.72496826 157.63644379 49.01268066 156.91741882 48.27880859 156.17660522 C47.62416122 155.5204422 46.96951385 154.86427917 46.29502869 154.18823242 C45.44417143 153.33209602 45.44417143 153.33209602 44.57612514 152.45866394 C42.85677389 150.79037266 42.85677389 150.79037266 40 149 C39.67 159.89 39.34 170.78 39 182 C26.13 182 13.26 182 0 182 C0 121.94 0 61.88 0 0 Z " fill="#FEFEFD" transform="translate(5452,78)"/>
<path d="M0 0 C60.39 0 120.78 0 183 0 C183 60.06 183 120.12 183 182 C170.13 182 157.26 182 144 182 C143.67 170.78 143.34 159.56 143 148 C139.1946875 151.81691406 135.389375 155.63382813 131.46875 159.56640625 C129.04454909 161.99572183 126.62019971 164.42488557 124.1953125 166.85351562 C120.35368342 170.70110262 116.51259043 174.54921371 112.67480469 178.40063477 C109.57771175 181.50866134 106.47812133 184.61417754 103.37684631 187.71803093 C102.19914555 188.89756718 101.02231931 190.07797732 99.84642029 191.25930977 C94.27121441 196.85922985 88.70093651 202.40397147 82.68688965 207.53895569 C80.13836135 209.74628014 77.78349205 212.10470145 75.40625 214.49609375 C74.92925659 214.97450211 74.45226318 215.45291046 73.96081543 215.94581604 C72.47146305 217.44066514 70.98566851 218.93899059 69.5 220.4375 C68.47679861 221.4657298 67.45336267 222.49372626 66.4296875 223.52148438 C63.95042001 226.01164338 61.47432462 228.50492833 59 231 C60.52606178 234.60162028 62.65840126 236.90619179 65.41455078 239.6574707 C66.32955353 240.57555008 67.24455627 241.49362946 68.18728638 242.43952942 C69.18978487 243.43512484 70.19246489 244.43053749 71.1953125 245.42578125 C72.22740583 246.456681 73.25912814 247.48795231 74.29049683 248.51957703 C76.45458267 250.68209946 78.62198184 252.84122567 80.79199219 254.99780273 C83.55392928 257.74284632 86.30933536 260.49432909 89.06245613 263.24821186 C91.19504683 265.38052847 93.33025107 267.51021203 95.46630478 269.63905907 C96.4818237 270.65142536 97.49676407 271.66437238 98.5110817 272.67794228 C103.60292557 277.761933 108.72916382 282.72651699 114.18966675 287.41304016 C117.15159795 290.00950457 119.91642861 292.79273514 122.6875 295.58984375 C123.27547363 296.17923233 123.86344727 296.76862091 124.46923828 297.37586975 C126.31522361 299.22737618 128.15766892 301.08235817 130 302.9375 C131.2640885 304.20661373 132.52840956 305.47549589 133.79296875 306.74414062 C136.86510609 309.82634394 139.93241337 312.91324096 143 316 C143.33 305.11 143.66 294.22 144 283 C156.54 283 169.08 283 182 283 C182 342.73 182 402.46 182 464 C121.94 464 61.88 464 0 464 C0 451.79 0 439.58 0 427 C13.53 426.34 27.06 425.68 41 425 C38.03 422.009375 35.06 419.01875 32 415.9375 C31.08089844 415.00929443 30.16179687 414.08108887 29.21484375 413.12475586 C28.46332031 412.37073486 27.71179687 411.61671387 26.9375 410.83984375 C25.80634766 409.70083618 25.80634766 409.70083618 24.65234375 408.53881836 C22.67234242 406.64356488 20.68624489 404.87240013 18.6015625 403.1015625 C11.88511255 397.26404898 5.71379487 390.83617819 -0.5625 384.53515625 C-1.96332215 383.13246609 -3.36436743 381.72999872 -4.765625 380.32774353 C-8.43054887 376.6590246 -12.09245808 372.98731122 -15.75372314 369.31494141 C-19.49934506 365.55904022 -23.24784413 361.80601289 -26.99609375 358.05273438 C-34.33352953 350.70461446 -41.66778005 343.3533242 -49 336 C-47.66202888 333.02691896 -46.19221468 330.94271925 -43.8901062 328.64286804 C-43.25102829 327.99959564 -42.61195038 327.35632324 -41.95350647 326.69355774 C-41.25325851 325.99892929 -40.55301056 325.30430084 -39.83154297 324.58862305 C-39.09307632 323.84825806 -38.35460968 323.10789307 -37.59376526 322.34509277 C-35.14810041 319.89571995 -32.69530073 317.45363005 -30.2421875 315.01171875 C-28.53748723 313.30821098 -26.83315689 311.60433296 -25.12918091 309.90010071 C-21.55274751 306.32523252 -17.97297716 302.7537513 -14.390625 299.18481445 C-9.81264856 294.62376983 -5.24122363 290.05622899 -0.67208672 285.48633099 C2.85019592 281.96432127 6.37508693 278.44493186 9.90084457 274.92640114 C11.58623322 273.24418231 13.27102777 271.56136805 14.95520401 269.87793541 C17.31936571 267.51595854 19.68680248 265.15731348 22.05517578 262.79956055 C22.74327835 262.11100479 23.43138092 261.42244904 24.14033508 260.71302795 C28.07124757 256.80767242 32.10696334 253.08013442 36.30770016 249.46602058 C38.28881732 247.74980075 40.17232945 245.95687658 42.02734375 244.10546875 C42.67380859 243.46029297 43.32027344 242.81511719 43.98632812 242.15039062 C44.63021484 241.50263672 45.27410156 240.85488281 45.9375 240.1875 C46.60845703 239.52041016 47.27941406 238.85332031 47.97070312 238.16601562 C48.60814453 237.52728516 49.24558594 236.88855469 49.90234375 236.23046875 C50.76073853 235.37038208 50.76073853 235.37038208 51.63647461 234.49291992 C53.10062576 233.02622622 53.10062576 233.02622622 54 231 C53.42743847 230.75247797 52.85487694 230.50495594 52.26496506 230.24993324 C49.64004983 228.80135955 47.87831976 227.12420382 45.76055908 225.00106812 C44.92205917 224.16531754 44.08355927 223.32956696 43.21965027 222.4684906 C42.30830826 221.54995804 41.39696625 220.63142548 40.45800781 219.68505859 C39.48249044 218.70897691 38.50653212 217.73333574 37.53016663 216.75810242 C34.88342897 214.1119385 32.24290245 211.45965413 29.6034441 208.80623198 C26.84302927 206.03331342 24.07694845 203.26605875 21.3114624 200.49819946 C16.07663863 195.25715988 10.84693394 190.01104297 5.61904693 184.76308501 C-0.33345265 178.7882296 -6.29163323 172.81905321 -12.25029898 166.85034823 C-24.50653378 154.57320914 -36.75561142 142.28895352 -49 130 C-47.25790189 126.28034717 -45.13915945 123.89149579 -42.21826172 120.9753418 C-41.73338791 120.48856964 -41.2485141 120.00179749 -40.74894714 119.50027466 C-39.14736926 117.89499809 -37.53871098 116.29702957 -35.9296875 114.69921875 C-34.80791328 113.57863789 -33.68650985 112.45768574 -32.56546021 111.33638 C-30.21306177 108.98554535 -27.85734521 106.63810503 -25.49902344 104.29321289 C-22.49494676 101.30603749 -19.49740523 98.31241132 -16.50214958 95.31639385 C-14.18426678 92.9987849 -11.86377149 90.68380643 -9.54242325 88.36966896 C-8.43758775 87.26798958 -7.33333394 86.16572648 -6.229702 85.06284142 C-0.89347015 79.73416573 4.46238376 74.49186 10.193573 69.58305359 C13.30894353 66.85291365 16.20983551 63.91330435 19.125 60.97265625 C19.68703125 60.40961792 20.2490625 59.84657959 20.828125 59.26647949 C22.88819487 57.20125387 24.94385529 55.13163355 27 53.0625 C31.62 48.421875 36.24 43.78125 41 39 C20.705 38.505 20.705 38.505 0 38 C0 25.46 0 12.92 0 0 Z " fill="#FEFEFE" transform="translate(5735,78)"/>
<path d="M0 0 C16.04055995 -0.1179357 32.0809747 -0.20551791 48.12186623 -0.25906086 C55.57358097 -0.28460656 63.02502309 -0.31929053 70.4765625 -0.37719727 C76.98776386 -0.42777146 83.49876747 -0.45946146 90.01015985 -0.47044247 C93.44309521 -0.47683945 96.87546597 -0.49134553 100.30821609 -0.52865028 C114.83684783 -0.66852021 128.9195467 -0.10579341 143.24365234 2.28833008 C144.46552561 2.49203311 145.68739887 2.69573614 146.9462986 2.90561199 C160.67796473 5.40345011 174.86540885 9.95111364 185 20 C185.70253906 20.67675781 186.40507812 21.35351562 187.12890625 22.05078125 C199.22742468 34.5949173 201.46485965 51.10264116 201.35791016 67.86621094 C200.67295175 96.3460604 192.05557031 123.17595061 171.53515625 143.57324219 C167.35142842 147.46155412 162.6917909 150.75750577 158 154 C158.75410156 154.59554687 159.50820313 155.19109375 160.28515625 155.8046875 C172.29986955 165.52018228 179.32120631 178.39149333 181.67578125 193.70703125 C184.63790337 223.79219933 176.75337078 253.83784744 157.921875 277.625 C139.80438726 299.0010287 113.60491766 307.93948877 86.55492401 310.72546768 C74.10371818 311.68702365 61.54538224 311.36830053 49.06646585 311.30418181 C44.72506073 311.285156 40.3836462 311.28364454 36.04220581 311.28010559 C27.85824942 311.27085991 19.67441631 311.24634986 11.49051368 311.21605712 C2.15767137 311.18227716 -7.1751775 311.1659684 -16.50806594 311.15097082 C-35.6721133 311.11979166 -54.83604666 311.06718027 -74 311 C-73.85792671 309.58916814 -73.71156905 308.17876743 -73.56347656 306.76855469 C-73.44193207 305.59036163 -73.44193207 305.59036163 -73.31793213 304.3883667 C-72.81073651 300.57821661 -71.78843073 296.94422625 -70.75 293.25 C-68.90991517 286.48185651 -67.17001315 279.70222582 -65.5625 272.875 C-65.35842529 272.00939453 -65.15435059 271.14378906 -64.9440918 270.25195312 C-64.51837295 268.44441704 -64.09300604 266.63679803 -63.66796875 264.82910156 C-62.48040542 259.79931946 -61.27053551 254.77489705 -60.0625 249.75 C-59.55205762 247.62500618 -59.04164109 245.50000614 -58.53125 243.375 C-58.27730469 242.31796875 -58.02335937 241.2609375 -57.76171875 240.171875 C-57.0175498 237.07307918 -56.27423456 233.97407999 -55.53125 230.875 C-51.40756841 213.67649865 -47.25743344 196.48442458 -43.10449219 179.29296875 C-39.81663919 165.68161667 -36.53390698 152.0690928 -33.26928711 138.45214844 C-31.05773486 129.23137286 -28.83197996 120.01404803 -26.60546875 110.796875 C-24.7305248 103.03278991 -22.86212876 95.26716807 -21 87.5 C-18.8418146 78.49794323 -16.67361065 69.49834448 -14.5 60.5 C-12.28636479 51.33460309 -10.07611241 42.1684131 -7.875 33 C-7.65779297 32.09572266 -7.44058594 31.19144531 -7.21679688 30.25976562 C-5.60452134 23.5395729 -4.00313799 16.81680072 -2.40283203 10.09375 C-2.17136978 9.12147461 -1.93990753 8.14919922 -1.70143127 7.14746094 C-1.13425696 4.76498123 -0.56711402 2.38249406 0 0 Z " fill="#FEFEFE" transform="translate(4433,124)"/>
<path d="M0 0 C7.63362053 6.68480894 11.55872054 14.10982836 14.17578125 23.83203125 C14.94057574 26.59761513 15.8826304 29.17277531 17 31.8125 C17.53367187 31.20664063 18.06734375 30.60078125 18.6171875 29.9765625 C34.86242753 11.70769396 54.13565847 -6.52648724 80 -8.1875 C96.40514107 -8.91893941 110.90524301 -6.29919129 123.875 4.625 C134.66252425 14.86533099 139.68016295 28.45782203 140.29296875 43.13671875 C140.54837912 54.53476788 139.73348041 65.39081002 137.453125 76.54931641 C136.98533489 78.88574652 136.56603659 81.2269574 136.15625 83.57421875 C134.15842708 94.83517749 131.58467196 105.91746298 128.85302734 117.02099609 C126.39097739 127.06839932 124.10340105 137.14837226 121.875 147.25 C121.70508545 148.0191272 121.5351709 148.78825439 121.36010742 149.58068848 C120.53618841 153.31038978 119.71349331 157.04035929 118.89160156 160.77050781 C113.58455892 184.8441144 113.58455892 184.8441144 111 194.1875 C108.85634613 201.97465079 107.26253595 209.86438678 105.66210938 217.77880859 C105.46037109 218.77477051 105.25863281 219.77073242 105.05078125 220.796875 C104.78261597 222.13830566 104.78261597 222.13830566 104.5090332 223.50683594 C104 225.8125 104 225.8125 103 228.8125 C79.24 228.8125 55.48 228.8125 31 228.8125 C31.63227343 223.12203911 32.25542497 218.12800045 33.53125 212.6484375 C33.68275009 211.9911264 33.83425018 211.33381531 33.99034119 210.65658569 C34.48879013 208.49908636 34.99438841 206.34333092 35.5 204.1875 C35.85864541 202.64106434 36.21678811 201.09451201 36.57446289 199.54785156 C37.32845159 196.29073014 38.08524928 193.0342801 38.84423828 189.77832031 C39.97516457 184.92422153 41.09641859 180.06792999 42.21484375 175.2109375 C42.5843852 173.60660667 42.95393275 172.00227725 43.32348633 170.39794922 C43.50698639 169.60128845 43.69048645 168.80462769 43.87954712 167.98382568 C46.18528001 157.97772935 48.49745311 147.97312339 50.81987 137.97088623 C51.62522289 134.50136995 52.42914704 131.03152331 53.23294067 127.56164551 C53.61021777 125.93477087 53.98817332 124.30805336 54.36691284 122.68151855 C56.38307452 114.02246654 58.35301144 105.35348082 60.234375 96.6640625 C60.40536209 95.89427063 60.57634918 95.12447876 60.7525177 94.33135986 C62.32914842 86.94305013 64.15069359 77.97324236 60.56640625 71.0390625 C58.23674317 67.72757134 56.89012242 66.10920747 53 64.8125 C42.01955592 64.06378478 42.01955592 64.06378478 32 67.8125 C31.43152344 68.15667969 30.86304688 68.50085938 30.27734375 68.85546875 C14.67364657 80.00096673 11.62891642 108.69235913 7.65185547 126.00390625 C6.4897825 131.0108304 5.27083859 136.00408189 4.0625 141 C2.29706731 148.32315169 0.57143569 155.65349995 -1.10058594 162.99853516 C-4.16218715 176.44396214 -7.46168966 189.8222727 -10.84106445 203.19067383 C-11.12072556 204.29928772 -11.12072556 204.29928772 -11.40603638 205.43029785 C-11.9122008 207.43539035 -12.42025918 209.44000447 -12.9284668 211.44458008 C-14.34518915 217.21960393 -15.66292701 223.01851704 -17 228.8125 C-40.76 228.8125 -64.52 228.8125 -89 228.8125 C-88.32583481 223.41917846 -87.5482607 218.34801054 -86.30273438 213.09960938 C-86.13311691 212.36980362 -85.96349945 211.63999786 -85.78874207 210.88807678 C-85.22744083 208.47658903 -84.660528 206.06645584 -84.09375 203.65625 C-83.69124553 201.93056447 -83.28919724 200.20477249 -82.88757324 198.47888184 C-82.03428395 194.81349607 -81.17912835 191.14855285 -80.32275391 187.48388672 C-78.12397039 178.06640952 -75.95390019 168.64228325 -73.78125 159.21875 C-73.56443573 158.27854004 -73.34762146 157.33833008 -73.12423706 156.36962891 C-72.2461547 152.56182112 -71.36811295 148.75400407 -70.49055481 144.94607544 C-69.37060709 140.08656835 -68.24945523 135.22734442 -67.12597656 130.36865234 C-66.01079712 125.54564336 -64.89844458 120.72199044 -63.78807068 115.89787292 C-63.3712567 114.08921616 -62.95344188 112.28078971 -62.53456116 110.47261047 C-61.95588073 107.97389168 -61.38083779 105.47436163 -60.80664062 102.97460938 C-60.63736053 102.24753281 -60.46808044 101.52045624 -60.29367065 100.77134705 C-56.50381797 85.19562491 -56.50381797 85.19562491 -59.625 70.125 C-64.40008169 65.47557836 -68.87333944 64.38171869 -75.4375 64.375 C-83.95087097 64.58304914 -87.72089965 66.25734709 -93.625 72.375 C-100.63486084 80.89033431 -103.23550554 91.34127201 -106 101.8125 C-106.30550781 102.905625 -106.61101562 103.99875 -106.92578125 105.125 C-109.43405011 114.20844279 -111.54419045 123.37147865 -113.64575195 132.5559082 C-117.26659997 148.37997731 -120.98369234 164.17436994 -125.17602539 179.85766602 C-127.11577084 187.15250834 -128.86738641 194.48809775 -130.59375 201.8359375 C-132.71059195 210.83251577 -134.85930198 219.82156833 -137 228.8125 C-160.76 228.8125 -184.52 228.8125 -209 228.8125 C-208.33626272 223.50260176 -207.62829001 218.81467427 -206.36328125 213.69140625 C-206.20344254 213.03824936 -206.04360382 212.38509247 -205.87892151 211.71214294 C-205.36085407 209.59873689 -204.83665801 207.48690283 -204.3125 205.375 C-203.94822913 203.89270124 -203.5844655 202.41027774 -203.22119141 200.92773438 C-202.49137891 197.95027922 -201.75976418 194.97327646 -201.02685547 191.99658203 C-199.61994466 186.27405981 -198.24550634 180.54383446 -196.875 174.8125 C-196.39326949 172.80207367 -195.91149896 170.79165693 -195.4296875 168.78125 C-195.19475586 167.80027344 -194.95982422 166.81929687 -194.71777344 165.80859375 C-193.48021087 160.64282237 -192.23993734 155.47770177 -191 150.3125 C-190.4999877 148.22916962 -189.99998768 146.14583629 -189.5 144.0625 C-188 137.8125 -188 137.8125 -186.5 131.5625 C-186.25258057 130.53157227 -186.00516113 129.50064453 -185.75024414 128.43847656 C-185.24945495 126.35188211 -184.74864109 124.26529359 -184.24780273 122.17871094 C-183.00967646 117.02032058 -181.77195738 111.86183325 -180.53515625 106.703125 C-177.57032505 94.33914808 -174.59310725 81.97821605 -171.60791016 69.61914062 C-169.22307195 59.74304287 -166.8487626 49.86445189 -164.48046875 39.984375 C-163.44401154 35.66082811 -162.40451913 31.33802301 -161.36328125 27.015625 C-161.09330322 25.89381836 -160.8233252 24.77201172 -160.54516602 23.61621094 C-160.03194329 21.48390211 -159.51815025 19.35173042 -159.00366211 17.21972656 C-158.65380249 15.76518066 -158.65380249 15.76518066 -158.296875 14.28125 C-158.09416992 13.44013672 -157.89146484 12.59902344 -157.68261719 11.73242188 C-156.75550516 7.76666369 -155.88348973 3.78820379 -155 -0.1875 C-132.89 -0.1875 -110.78 -0.1875 -88 -0.1875 C-89.21305013 6.48427572 -90.43009023 12.96518121 -92.125 19.5 C-92.30675781 20.21349609 -92.48851562 20.92699219 -92.67578125 21.66210938 C-93.11384064 23.37976329 -93.55640652 25.09626697 -94 26.8125 C-93.19735866 26.00985866 -92.40836913 25.19357601 -91.62402344 24.37304688 C-68.85707201 0.61075003 -31.86196028 -22.67411001 0 0 Z " fill="#FEFEFE" transform="translate(1999,206.1875)"/>
<path d="M0 0 C16.78950936 11.61398214 24.87484922 29.80040922 28.82226562 49.33520508 C32.43758586 70.01752905 30.4543753 92.44804663 26.63574219 112.97680664 C26.25122316 115.05588645 25.88661741 117.13780271 25.5234375 119.22070312 C18.55856267 158.01332357 0.27846974 199.05328613 -32.17578125 222.96484375 C-45.27300487 232.06196718 -60.63652041 238.04578533 -76.6875 237.9375 C-77.56599609 237.93186035 -78.44449219 237.9262207 -79.34960938 237.92041016 C-94.95676474 237.63128274 -108.32031477 232.93278014 -119.73828125 222.06640625 C-131 209.90997409 -131 209.90997409 -131 202.625 C-131.66 202.625 -132.32 202.625 -133 202.625 C-133.10828125 203.84574219 -133.2165625 205.06648437 -133.328125 206.32421875 C-134.01346134 212.46229232 -135.38013219 218.42152922 -136.75 224.4375 C-137.01804443 225.63020508 -137.28608887 226.82291016 -137.56225586 228.05175781 C-139.32075901 235.81479158 -141.1979014 243.54046072 -143.17041016 251.25146484 C-145.51651396 260.50187092 -147.47166353 269.83611474 -149.46972656 279.16650391 C-150.58432391 284.33408922 -151.78472734 289.48034573 -153 294.625 C-153.29438965 295.88401123 -153.29438965 295.88401123 -153.59472656 297.16845703 C-154.26870067 300.05046562 -154.94645074 302.93156544 -155.625 305.8125 C-155.84349609 306.74723145 -156.06199219 307.68196289 -156.28710938 308.64501953 C-156.49400391 309.51884277 -156.70089844 310.39266602 -156.9140625 311.29296875 C-157.0992041 312.07953857 -157.2843457 312.8661084 -157.47509766 313.67651367 C-158 315.625 -158 315.625 -159 317.625 C-183.42 317.625 -207.84 317.625 -233 317.625 C-227.2682596 291.25899416 -227.2682596 291.25899416 -224.625 280.0625 C-224.17444233 278.14301101 -223.7238882 276.22352118 -223.27352905 274.3039856 C-222.81568521 272.35341384 -222.35706407 270.40302459 -221.8984375 268.45263672 C-221.03224198 264.76236136 -220.17118168 261.07093653 -219.3125 257.37890625 C-216.0540963 243.36956846 -212.758945 229.36950259 -209.4375 215.375 C-206.40028988 202.57754573 -203.40200263 189.77217342 -200.45703125 176.953125 C-197.96452259 166.10840601 -195.42300933 155.27502791 -192.89111328 144.43945312 C-191.42607355 138.16828031 -189.963132 131.89661813 -188.5 125.625 C-187.91667696 123.1249976 -187.33334362 120.6249976 -186.75 118.125 C-186.46125 116.8875 -186.1725 115.65 -185.875 114.375 C-182.66666667 100.625 -179.45833333 86.875 -176.25 73.125 C-175.96108887 71.8867749 -175.67217773 70.6485498 -175.37451172 69.37280273 C-174.79286777 66.88011254 -174.21116233 64.38743669 -173.62939453 61.89477539 C-172.29739039 56.18730554 -170.96586201 50.47972702 -169.63677979 44.77157593 C-169.17923817 42.80666411 -168.72148464 40.84180178 -168.26367188 38.87695312 C-167.6994581 36.455174 -167.13561262 34.03330902 -166.57226562 31.61132812 C-164.08532986 20.94000229 -161.53804505 10.28478919 -159 -0.375 C-136.89 -0.375 -114.78 -0.375 -92 -0.375 C-94.09090909 13.21590909 -94.09090909 13.21590909 -96 19.625 C-96 20.945 -96 22.265 -96 23.625 C-95.59910156 23.15191406 -95.19820312 22.67882812 -94.78515625 22.19140625 C-92.8827253 19.97837433 -90.94827118 17.79779314 -89 15.625 C-88.34773437 14.8928125 -87.69546875 14.160625 -87.0234375 13.40625 C-64.86289518 -10.16526318 -28.16232143 -16.74618577 0 0 Z " fill="#FEFEFE" transform="translate(791,206.375)"/>
<path d="M0 0 C1.27012939 -0.00161133 2.54025879 -0.00322266 3.84887695 -0.00488281 C16.45613543 0.14214061 28.73704886 1.33006533 40.6875 5.5 C41.57880615 5.80711914 42.4701123 6.11423828 43.38842773 6.43066406 C65.28108182 14.2623111 81.72359217 29.52335144 92.125 50.375 C103.1341376 75.38642463 103.125 99.5893215 103.125 127.375 C77.385 127.375 51.645 127.375 25.125 127.375 C24.795 119.455 24.465 111.535 24.125 103.375 C21.49968966 94.72691887 17.87306026 87.06710612 10.0390625 82.03515625 C0.10061435 76.84425675 -12.8177687 76.64791386 -23.578125 79.28125 C-29.69060158 81.72624063 -34.87437128 85.12956827 -39.875 89.375 C-40.84179688 90.14457031 -41.80859375 90.91414063 -42.8046875 91.70703125 C-68.01393687 112.79984351 -77.79476924 153.01353735 -80.64355469 184.18408203 C-82.96486352 214.46149625 -82.96486352 214.46149625 -70.875 241.375 C-61.86395096 249.23500263 -51.53276226 250.31834564 -40.00244141 249.61328125 C-27.06023853 248.163707 -14.9965305 239.16207875 -6.875 229.375 C-0.47709921 220.47791922 4.17967623 211.26564754 9.125 201.375 C35.525 201.375 61.925 201.375 89.125 201.375 C85.74155949 214.90876206 85.74155949 214.90876206 84.14453125 219.234375 C83.7894751 220.19666016 83.43441895 221.15894531 83.06860352 222.15039062 C82.50870728 223.62282227 82.50870728 223.62282227 81.9375 225.125 C81.54167725 226.16849609 81.14585449 227.21199219 80.73803711 228.28710938 C65.68502071 267.27403101 38.80695195 301.05221282 0.125 318.375 C-25.67188126 329.36856487 -54.32588514 331.55721188 -81.875 326.375 C-82.51904785 326.25672852 -83.1630957 326.13845703 -83.82666016 326.01660156 C-106.15010025 321.74432888 -127.18901875 308.60223867 -140.875 290.375 C-158.21099818 264.43767965 -164.2313346 238.40051248 -164.25 207.5625 C-164.25199402 206.69189941 -164.25398804 205.82129883 -164.25604248 204.92431641 C-164.25210816 189.73353964 -163.00508423 174.92266829 -160.0625 160 C-159.89218262 159.12770752 -159.72186523 158.25541504 -159.54638672 157.35668945 C-156.58035886 142.57060006 -152.61435744 128.32637495 -146.875 114.375 C-146.60429687 113.7140332 -146.33359375 113.05306641 -146.0546875 112.37207031 C-136.30337831 88.80260921 -123.27154799 67.32995207 -105.8828125 48.59375 C-104.48093038 47.04458843 -103.13796937 45.44095541 -101.84375 43.80078125 C-98.90598712 40.1810377 -95.44365112 37.3550715 -91.875 34.375 C-91.1325 33.74464844 -90.39 33.11429688 -89.625 32.46484375 C-74.4181409 19.8841692 -56.09518645 9.30031596 -36.875 4.375 C-36.19969238 4.19598145 -35.52438477 4.01696289 -34.82861328 3.83251953 C-23.26993774 0.8761132 -11.89984038 -0.00215717 0 0 Z " fill="#FEFEFE" transform="translate(253.875,115.625)"/>
<path d="M0 0 C0.92167969 0.55429688 1.84335938 1.10859375 2.79296875 1.6796875 C21.58560528 13.85848141 32.60366394 33.16208708 37.4375 54.625 C39 65 39 65 39 87 C13.26 87 -12.48 87 -39 87 C-39.66 82.71 -40.32 78.42 -41 74 C-43.66389146 66.99495209 -47.40735411 62.74391132 -53.84375 58.8984375 C-61.19080739 55.83716359 -71.36632236 55.61856937 -78.921875 57.87109375 C-85.53305841 60.92626184 -89.88482328 65.15422414 -93.375 71.5 C-94.62477545 76.49910181 -94.67169298 80.34854569 -92.125 84.875 C-82.82779751 98.32737678 -67.30269841 105.33769388 -53.3125 112.8125 C-23.85968802 128.56647582 2.37849432 145.15876706 13.08984375 178.52734375 C19.07845193 201.37658267 15.05966309 231.06576294 4.25 251.9375 C3.89711914 252.62497314 3.54423828 253.31244629 3.18066406 254.02075195 C-8.85030076 277.13955341 -25.74064121 291.80738871 -49 303 C-50.33998047 303.64775391 -50.33998047 303.64775391 -51.70703125 304.30859375 C-56.7013253 306.49519268 -61.90157725 307.83498314 -67.1875 309.125 C-67.83396484 309.28395752 -68.48042969 309.44291504 -69.14648438 309.60668945 C-82.16459142 312.592364 -95.13963347 313.4100783 -108.4375 313.375 C-109.21903442 313.37445618 -110.00056885 313.37391235 -110.80578613 313.37335205 C-139.18912116 313.28306048 -166.09762326 308.27124707 -188 289 C-189.16015625 287.98292969 -189.16015625 287.98292969 -190.34375 286.9453125 C-196.60387116 281.092528 -200.881161 274.4789445 -205 267 C-205.72703125 265.70835937 -205.72703125 265.70835937 -206.46875 264.390625 C-215.08533707 247.47269186 -215.25701857 227.53105447 -214 209 C-213.67 208.01 -213.34 207.02 -213 206 C-186.6 206 -160.2 206 -133 206 C-132.01 214.91 -132.01 214.91 -131 224 C-128.94529097 228.4824578 -128.94529097 228.4824578 -126 232 C-125.48308594 232.55816406 -124.96617188 233.11632812 -124.43359375 233.69140625 C-117.61178614 240.2599681 -109.28928052 241.54805154 -100.125 241.4375 C-99.25020996 241.43065186 -98.37541992 241.42380371 -97.47412109 241.41674805 C-89.07126735 241.20850951 -82.79256274 239.31767723 -75.625 234.9375 C-70.96287104 229.72035569 -67.79324295 223.39055808 -67.4375 216.3125 C-67.92362664 209.13573572 -71.58211711 203.61627314 -76.7578125 198.81640625 C-86.31767599 191.07191754 -97.42090848 185.53162152 -108.16342163 179.64498901 C-117.86748249 174.3144256 -127.14283986 168.65051277 -136 162 C-136.91136719 161.31808594 -137.82273437 160.63617188 -138.76171875 159.93359375 C-141.23195343 158.01402363 -143.62481081 156.03587644 -146 154 C-146.99902344 153.14664063 -147.99804688 152.29328125 -149.02734375 151.4140625 C-158.40166094 143.22548699 -164.89243643 134.36480011 -170 123 C-170.29777344 122.35675781 -170.59554688 121.71351563 -170.90234375 121.05078125 C-178.86243735 102.16040987 -175.9461908 76.97779586 -170 58 C-169.72414063 57.04738281 -169.44828125 56.09476562 -169.1640625 55.11328125 C-162.116866 32.07436961 -145.76033166 12.40444842 -124.73291016 0.74267578 C-114.87837939 -4.40897156 -104.90493739 -8.65051403 -94 -11 C-93.35820801 -11.14663086 -92.71641602 -11.29326172 -92.05517578 -11.44433594 C-62.34236122 -18.0220359 -26.28015399 -16.36493106 0 0 Z " fill="#FEFEFE" transform="translate(1761,130)"/>
<path d="M0 0 C24.42 0 48.84 0 74 0 C72.87528345 8.99773243 72.87528345 8.99773243 71.80078125 13.37109375 C71.56407715 14.3451416 71.32737305 15.31918945 71.08349609 16.32275391 C70.70185303 17.86455322 70.70185303 17.86455322 70.3125 19.4375 C69.76933773 21.66271319 69.22637482 23.88797505 68.68359375 26.11328125 C68.2656958 27.81798584 68.2656958 27.81798584 67.83935547 29.55712891 C67.01832917 32.92481735 66.21132179 36.29550498 65.41015625 39.66796875 C61.15768579 57.5646217 61.15768579 57.5646217 59 65.4375 C56.91608181 73.08710916 55.18446242 80.81004748 53.42407227 88.53955078 C51.52726401 96.82308799 49.51432866 105.07236192 47.4375 113.3125 C45.29326853 121.82402062 43.16640383 130.33815132 41.125 138.875 C40.92189209 139.71844971 40.71878418 140.56189941 40.50952148 141.4309082 C39.51744664 145.60483451 38.64165142 149.75417888 38 154 C38.54527344 153.32195312 39.09054687 152.64390625 39.65234375 151.9453125 C43.50306531 147.19279803 47.37898637 142.52075922 51.5 138 C54.59555196 134.60401318 57.55151207 131.13828469 60.4375 127.5625 C64.29825137 122.788597 68.37437075 118.26611572 72.53125 113.75 C74.94378104 111.06262366 77.2325621 108.31034556 79.5 105.5 C83.34552011 100.7356388 87.38637418 96.19748597 91.54296875 91.703125 C93.89058863 89.22923075 93.89058863 89.22923075 95.25418282 87.23271084 C98.83499252 82.38906764 98.83499252 82.38906764 101.90180588 81.36487007 C104.12441773 81.14045138 106.25107211 81.13265012 108.48388672 81.20532227 C109.7287812 81.20378899 109.7287812 81.20378899 110.99882507 81.20222473 C113.72710779 81.20708059 116.45199375 81.26142082 119.1796875 81.31640625 C121.07681449 81.32946972 122.97396518 81.33943035 124.87112427 81.34642029 C129.85300439 81.37308712 134.83344508 81.44179739 139.8147583 81.51934814 C144.90234913 81.59108724 149.99017365 81.62295455 155.078125 81.65820312 C165.05271413 81.73316987 175.02623715 81.85256708 185 82 C181.24258703 86.49158621 177.36642833 90.76621651 173.19140625 94.87109375 C172.66159653 95.39711685 172.1317868 95.92313995 171.58592224 96.46510315 C169.35434099 98.6805848 167.11677295 100.88998157 164.87963867 103.09985352 C163.23140934 104.72977722 161.58636511 106.36287044 159.94140625 107.99609375 C159.44951309 108.47968857 158.95761993 108.96328339 158.45082092 109.46153259 C155.78289019 112.11112723 153.26841523 114.82943855 150.82983398 117.69213867 C146.61420056 122.55757711 141.98058258 126.9767325 137.33992004 131.42959213 C134.63695114 134.03098371 131.95674524 136.65570265 129.2734375 139.27734375 C125.87965011 142.59297541 122.47931857 145.90057481 119.04785156 149.17724609 C116.25348158 151.846768 113.48705102 154.5425794 110.73728943 157.25799942 C109.69120359 158.28135689 108.63539534 159.29487823 107.56971741 160.29781723 C101.5795918 165.62928675 101.5795918 165.62928675 98.55941772 172.75827026 C98.78534687 175.33182714 99.24188392 177.53509092 100 180 C100.20251373 180.80310608 100.40502747 181.60621216 100.61367798 182.43365479 C101.2119908 184.77336145 101.91055319 187.06820002 102.625 189.375 C105.15559182 197.86392905 107.39209333 206.39670446 109.5 215 C111.51969787 223.21461588 113.61732928 231.38298196 116 239.5 C119.11297282 250.11174126 121.75002048 260.83187074 124.40234375 271.56640625 C126.3419166 279.41198408 128.41487944 287.21690738 130.55126953 295.01123047 C130.93449083 296.41097622 131.31626019 297.81112033 131.6965332 299.21166992 C132.21642366 301.12634369 132.74086776 303.03977936 133.265625 304.953125 C134 308 134 308 134 311 C107.93 311 81.86 311 55 311 C53.58247436 306.74742307 52.52135123 303.0322943 51.703125 298.6875 C51.46956299 297.461521 51.23600098 296.23554199 50.99536133 294.97241211 C50.87399811 294.3254538 50.75263489 293.67849548 50.62759399 293.01193237 C49.97773557 289.54929466 49.3138443 286.08933507 48.65234375 282.62890625 C48.51660446 281.91674454 48.38086517 281.20458282 48.24101257 280.47084045 C46.80574506 272.95151362 45.31487586 265.44366684 43.8125 257.9375 C43.57499023 256.74576172 43.33748047 255.55402344 43.09277344 254.32617188 C41.65651176 247.15490729 40.14390031 240.00510373 38.55737305 232.86547852 C38 230 38 230 38 227 C37.36191406 227.65097656 36.72382813 228.30195313 36.06640625 228.97265625 C33.68044185 231.36702489 31.20806506 233.65143307 28.71484375 235.93359375 C16.69603338 246.88954167 16.69603338 246.88954167 11.36474609 261.82861328 C10.74151831 265.53877919 9.76638657 269.16375224 8.85644531 272.81225586 C5.69843685 285.49187349 2.89551881 298.25971725 0 311 C-24.09 311 -48.18 311 -73 311 C-72.39475469 305.55279217 -71.840098 300.71428973 -70.65234375 295.46484375 C-70.38099609 294.26013428 -70.10964844 293.0554248 -69.83007812 291.81420898 C-69.53552734 290.53489502 -69.24097656 289.25558105 -68.9375 287.9375 C-68.62563407 286.56909566 -68.31378548 285.20068738 -68.00195312 283.83227539 C-65.47898803 272.82438682 -62.75387801 261.87034702 -59.984375 250.92236328 C-57.39366277 240.66729822 -54.95512328 230.38171433 -52.57421875 220.07568359 C-50.60441628 211.5574071 -48.56977735 203.05699526 -46.5 194.5625 C-44.08159023 184.62642915 -41.785172 174.66908924 -39.5625 164.6875 C-37.02859661 153.31676052 -34.2879263 142.01252697 -31.42263794 130.72103882 C-29.13079261 121.67831968 -26.97880898 112.61728449 -25 103.5 C-22.86761035 93.68093676 -20.52748722 83.92713787 -18.0625 74.1875 C-14.78221587 61.22521263 -11.6862621 48.23036071 -8.671875 35.203125 C-7.01998759 28.0655787 -5.33159581 20.93714845 -3.625 13.8125 C-3.37411621 12.76070557 -3.12323242 11.70891113 -2.86474609 10.62524414 C-2.63352051 9.66223389 -2.40229492 8.69922363 -2.1640625 7.70703125 C-1.96248535 6.8663208 -1.7609082 6.02561035 -1.55322266 5.15942383 C-1.10748784 3.41956307 -0.56796082 1.70388247 0 0 Z " fill="#FEFEFE" transform="translate(5173,124)"/>
<path d="M0 0 C2.40641692 0.01613568 4.81116127 0.00000287 7.2175293 -0.01904297 C21.03673211 -0.03873445 34.59526224 1.57752583 47.71557617 6.14111328 C48.83379761 6.52299805 48.83379761 6.52299805 49.97460938 6.91259766 C56.37928611 9.20598141 61.9037352 12.28516567 67.34057617 16.39111328 C67.97995117 16.83841797 68.61932617 17.28572266 69.27807617 17.74658203 C78.82031578 25.00975995 84.75766935 36.94195504 86.93041992 48.53955078 C87.45254741 53.44257651 87.48597656 58.27691974 87.46557617 63.20361328 C87.46944336 64.156875 87.47331055 65.11013672 87.47729492 66.09228516 C87.47536133 67.45643555 87.47536133 67.45643555 87.47338867 68.84814453 C87.47226074 69.67290283 87.47113281 70.49766113 87.4699707 71.34741211 C87.34057617 73.39111328 87.34057617 73.39111328 86.34057617 75.39111328 C86.09946247 77.07245076 85.86260763 78.75448444 85.64453125 80.43896484 C82.42593633 104.4194359 75.26370112 128.00985333 69.15917969 151.38427734 C66.7202185 160.77216216 64.47399043 170.19375066 62.36083984 179.66015625 C61.38328812 184.01430189 60.4105939 188.33583055 59.08276367 192.59814453 C56.7924206 199.98970626 55.96514182 206.75417175 55.90307617 214.45361328 C55.8929248 215.34733643 55.88277344 216.24105957 55.87231445 217.16186523 C55.94367961 222.46650804 56.85699336 225.64134349 59.34057617 230.39111328 C59.34057617 232.70111328 59.34057617 235.01111328 59.34057617 237.39111328 C34.92057617 237.39111328 10.50057617 237.39111328 -14.65942383 237.39111328 C-14.98942383 230.79111328 -15.31942383 224.19111328 -15.65942383 217.39111328 C-18.19629883 219.37111328 -18.19629883 219.37111328 -20.78442383 221.39111328 C-42.24648125 237.67195656 -67.67368067 247.47424234 -94.80786133 245.11767578 C-105.69583551 243.6030757 -115.3646184 239.64005194 -123.65942383 232.39111328 C-124.25239258 231.91416016 -124.84536133 231.43720703 -125.45629883 230.94580078 C-131.47854576 225.64302583 -134.50631462 218.60171186 -137.65942383 211.39111328 C-138.20663086 210.19035156 -138.20663086 210.19035156 -138.76489258 208.96533203 C-145.36920256 191.50886949 -140.02595155 166.76740272 -132.99536133 150.23486328 C-123.19243408 129.36781347 -108.428109 115.37991134 -86.75024414 107.50439453 C-84.72400499 106.78757806 -82.69351465 106.08530739 -80.65942383 105.39111328 C-79.03327148 104.83423828 -79.03327148 104.83423828 -77.37426758 104.26611328 C-61.32066579 99.07051018 -45.16637255 96.64457255 -28.44750977 94.87353516 C-7.32292751 92.63640017 -7.32292751 92.63640017 10.02807617 81.70361328 C13.76768502 76.72849945 13.87329354 72.52220588 13.34057617 66.39111328 C11.61433973 62.211804 9.06666375 59.90405606 5.34057617 57.39111328 C-2.88189678 54.0902932 -12.77526278 53.98494703 -21.15942383 56.89111328 C-30.1993932 61.18584956 -32.97505621 68.18019424 -36.65942383 77.39111328 C-60.08942383 77.39111328 -83.51942383 77.39111328 -107.65942383 77.39111328 C-103.5256495 54.65535447 -91.97064173 33.82651383 -73.15942383 19.89111328 C-51.25960078 5.24665146 -26.0751905 -0.2069249 0 0 Z " fill="#FEFEFD" transform="translate(2284.659423828125,197.60888671875)"/>
<path d="M0 0 C1.03898437 0.19335938 2.07796875 0.38671875 3.1484375 0.5859375 C17.06700782 3.39887691 30.56121321 11.33757148 39.05859375 22.76953125 C51.87819552 42.25212771 50.82723603 62.60453114 46.38525391 84.66699219 C41.86426267 106.39926774 36.33775445 127.8877517 30.7421875 149.36328125 C28.24891398 158.93322206 25.93050438 168.52728174 23.78637695 178.18188477 C22.55427976 183.71858724 21.17022887 189.18643062 19.63769531 194.64819336 C17.04986211 204.19206673 16.26918044 215.65319849 20.34375 224.83984375 C21 227 21 227 21 234 C-3.42 234 -27.84 234 -53 234 C-53.33 227.4 -53.66 220.8 -54 214 C-56.5059375 215.9490625 -56.5059375 215.9490625 -59.0625 217.9375 C-81.48440718 234.91555926 -106.50929277 244.33657072 -134.9140625 241.49609375 C-147.68240292 239.44346181 -159.8242096 233.18387927 -168 223 C-172.19148726 217.04471905 -175.10085339 211.02274359 -177 204 C-177.25801392 203.11852295 -177.25801392 203.11852295 -177.52124023 202.21923828 C-182.10069137 180.9916958 -176.97752199 154.83652286 -165.89453125 136.32421875 C-158.46165425 125.12885888 -149.70246737 116.58467523 -138 110 C-137.15695312 109.49984375 -136.31390625 108.9996875 -135.4453125 108.484375 C-116.61756563 98.11547092 -94.1641398 94.64806319 -73.11328125 91.9765625 C-72.42809418 91.88950546 -71.7429071 91.80244843 -71.03695679 91.7127533 C-67.64993451 91.2855995 -64.26242804 90.873886 -60.87109375 90.48168945 C-51.09810634 89.30981255 -41.38498202 88.1401221 -33 82.625 C-32.113125 82.06039062 -31.22625 81.49578125 -30.3125 80.9140625 C-26.83258897 78.03373073 -25.21214888 75.56407799 -24.6015625 71.0625 C-24.60929687 70.051875 -24.61703125 69.04125 -24.625 68 C-24.61726563 66.989375 -24.60953125 65.97875 -24.6015625 64.9375 C-25.18308395 60.65020462 -26.62145612 58.05941228 -30.05859375 55.41796875 C-39.60003904 50.48273843 -49.83321967 50.78657122 -60 54 C-68.8899864 58.77425195 -70.72603575 64.59727865 -75 74 C-98.43 74 -121.86 74 -146 74 C-140.32152456 48.44686054 -128.04224074 27.18402124 -105.75 12.75 C-75.78860132 -4.8638864 -33.4864548 -8.23689808 0 0 Z " fill="#FEFEFE" transform="translate(1251,201)"/>
<path d="M0 0 C1.28455078 -0.00386719 2.56910156 -0.00773438 3.89257812 -0.01171875 C28.2826979 0.01315644 51.92032731 4.51771559 69.921875 22.05859375 C80.72855546 33.53491894 83.51616401 48.07503642 83.4206543 63.38842773 C82.7147017 86.81099919 75.64035979 109.72985773 69.71586609 132.25088501 C67.92473269 139.09563435 66.299053 145.97140147 64.75 152.875 C62.50109129 162.87626387 60.00787226 172.7985215 57.3840332 182.70800781 C50.74769137 204.7764033 50.74769137 204.7764033 54.28125 226.90234375 C54.9375 229.125 54.9375 229.125 54.9375 237.125 C30.5175 237.125 6.0975 237.125 -19.0625 237.125 C-19.3925 230.525 -19.7225 223.925 -20.0625 217.125 C-21.361875 218.23875 -22.66125 219.3525 -24 220.5 C-43.1973944 235.81447022 -64.847496 244.75498371 -89.5625 244.625 C-90.83262939 244.61927979 -92.10275879 244.61355957 -93.41137695 244.60766602 C-108.17219263 244.32568478 -119.41480618 240.31514389 -130.27734375 230.02734375 C-135.10089475 224.93432063 -138.31582491 219.55520059 -141.0625 213.125 C-141.41570313 212.32578125 -141.76890625 211.5265625 -142.1328125 210.703125 C-149.31755454 190.77905044 -143.8141048 164.61469189 -135.25 145.9375 C-132.00628183 139.28952919 -128.10737897 133.56191455 -123.0625 128.125 C-122.54558594 127.51785156 -122.02867187 126.91070312 -121.49609375 126.28515625 C-113.54693705 117.49924621 -101.93073037 111.46903819 -91.0625 107.125 C-90.26328125 106.79113281 -89.4640625 106.45726562 -88.640625 106.11328125 C-72.29044332 99.68999559 -54.95769599 97.14408998 -37.625 95.0625 C-14.28316777 92.93424754 -14.28316777 92.93424754 5.9375 82.125 C9.82559966 77.05868832 9.59437712 71.26210913 8.9375 65.125 C7.55374414 61.06021715 5.61089462 59.78597551 1.9375 57.875 C-6.78376523 53.84471834 -16.97611482 53.97565588 -26.0625 57.125 C-31.93478424 60.29948181 -35.3156843 64.10313481 -38.0625 70.125 C-38.7225 72.435 -39.3825 74.745 -40.0625 77.125 C-63.8225 77.125 -87.5825 77.125 -112.0625 77.125 C-110.6597822 70.11141101 -109.25631302 64.25421277 -106.5 57.8125 C-105.97490845 56.58092163 -105.97490845 56.58092163 -105.43920898 55.32446289 C-95.55078107 32.95022624 -77.50740588 16.68559524 -54.84765625 7.875 C-51.60602876 6.82852253 -48.3690485 5.94428924 -45.0625 5.125 C-44.0115918 4.86227295 -44.0115918 4.86227295 -42.93945312 4.59423828 C-40.63002346 4.02483756 -38.31669434 3.47654847 -36 2.9375 C-35.29254639 2.77024414 -34.58509277 2.60298828 -33.85620117 2.43066406 C-22.69773876 -0.0374031 -11.37817669 -0.03435786 0 0 Z " fill="#FEFEFE" transform="translate(3440.0625,197.875)"/>
<path d="M0 0 C11.80378819 11.22473443 16.61765035 24.4692663 17.03857422 40.56445312 C17.26448976 60.79258306 12.46967525 79.85162223 7.2265625 99.265625 C5.57940465 105.42365423 4.16086943 111.62629117 2.7578125 117.84375 C0.75289865 126.70339064 -1.42034758 135.49953545 -3.7421875 144.28125 C-6.18378677 153.60969206 -8.5649657 162.95102833 -10.76809692 172.33877563 C-11.22484766 174.27041815 -11.6979236 176.19817815 -12.17163086 178.12573242 C-14.73835852 189.23885764 -16.45651433 200.57543689 -11.3046875 211.09375 C-11.3046875 213.73375 -11.3046875 216.37375 -11.3046875 219.09375 C-35.7246875 219.09375 -60.1446875 219.09375 -85.3046875 219.09375 C-85.3046875 212.49375 -85.3046875 205.89375 -85.3046875 199.09375 C-87.8003125 200.90875 -90.2959375 202.72375 -92.8671875 204.59375 C-112.2659948 218.43449315 -131.73250535 226.67282926 -155.9296875 226.53125 C-157.14914062 226.55123047 -158.36859375 226.57121094 -159.625 226.59179688 C-173.57783057 226.58434344 -185.50544992 222.31077389 -195.81640625 212.76953125 C-200.88422632 207.43366119 -204.60497894 201.94155091 -207.3046875 195.09375 C-207.56290283 194.46710449 -207.82111816 193.84045898 -208.0871582 193.19482422 C-210.47478099 186.8840206 -210.80847993 181.04972561 -210.7421875 174.34375 C-210.73388916 173.25263916 -210.72559082 172.16152832 -210.71704102 171.03735352 C-210.23259422 147.29946059 -203.63909758 125.08487565 -187.1796875 107.40625 C-172.20976269 93.25519287 -153.0004264 86.56259675 -133.3046875 82.09375 C-132.49483398 81.90683594 -131.68498047 81.71992188 -130.85058594 81.52734375 C-120.54198143 79.18652526 -110.36355881 77.69400342 -99.83325195 76.80737305 C-85.7418313 75.58554296 -71.45318715 73.42208644 -60.3046875 64.09375 C-56.36546098 58.67500179 -56.55827682 53.5655697 -57.3046875 47.09375 C-59.08381684 42.56505714 -61.35800768 40.77392828 -65.6171875 38.71875 C-73.74686943 35.8565247 -83.40791047 35.46897903 -91.4296875 38.84375 C-92.74224337 39.55656124 -94.03778898 40.30262996 -95.3046875 41.09375 C-96.2121875 41.63 -97.1196875 42.16625 -98.0546875 42.71875 C-102.38113367 47.28555429 -104.79254601 53.04518403 -106.3046875 59.09375 C-130.0646875 59.09375 -153.8246875 59.09375 -178.3046875 59.09375 C-173.66230589 40.52422355 -173.66230589 40.52422355 -170.5546875 34.78125 C-170.21252197 34.12447266 -169.87035645 33.46769531 -169.51782227 32.79101562 C-166.32156002 26.81472817 -162.55273212 21.3734626 -158.3046875 16.09375 C-157.77617187 15.40152344 -157.24765625 14.70929688 -156.703125 13.99609375 C-145.2069406 -0.24671599 -128.6106305 -8.17640095 -111.3046875 -12.90625 C-110.45003906 -13.18210938 -109.59539062 -13.45796875 -108.71484375 -13.7421875 C-76.27146648 -23.84012619 -27.30862108 -22.58746964 0 0 Z " fill="#FEFEFE" transform="translate(558.3046875,215.90625)"/>
<path d="M0 0 C10.87888791 10.12115442 15.37134924 22.60520042 16.07421875 37.30859375 C16.10842739 39.47761985 16.11813385 41.64714738 16.10546875 43.81640625 C16.09974854 44.98840576 16.09402832 46.16040527 16.08813477 47.36791992 C15.8759082 57.92994288 14.0300904 67.64208108 11.39257812 77.83447266 C10.5407964 81.19668549 9.76220481 84.57038642 8.99609375 87.953125 C5.90536986 101.58016259 2.5715 115.12426792 -0.96731567 128.64038086 C-3.62076405 138.78127309 -6.06540836 148.9539456 -8.37597656 159.17797852 C-9.95453343 166.13713098 -11.68444908 173.02613784 -13.6328125 179.890625 C-15.86178696 188.81795348 -17.40353907 199.36833548 -13.05078125 207.83203125 C-12.39453125 209.94140625 -12.39453125 209.94140625 -12.39453125 217.94140625 C-36.48453125 217.94140625 -60.57453125 217.94140625 -85.39453125 217.94140625 C-85.39453125 211.01140625 -85.39453125 204.08140625 -85.39453125 196.94140625 C-87.20953125 198.40578125 -89.02453125 199.87015625 -90.89453125 201.37890625 C-100.81401989 209.11214163 -111.64328492 214.97925598 -123.20703125 219.87890625 C-123.86348633 220.16145264 -124.51994141 220.44399902 -125.19628906 220.73510742 C-134.75996437 224.60448027 -144.5433163 225.30889435 -154.76953125 225.25390625 C-155.86861816 225.2482666 -156.96770508 225.24262695 -158.10009766 225.23681641 C-173.20941562 225.01063572 -186.20136061 221.55850183 -197.55078125 210.9765625 C-209.78411119 197.47324704 -212.02976304 182.03510584 -211.53076172 164.61035156 C-210.35211475 141.51900979 -201.86008079 119.28027378 -184.70703125 103.31640625 C-160.75698912 83.47475341 -128.42432883 78.35143137 -98.43603516 75.03051758 C-77.63111991 72.86068694 -77.63111991 72.86068694 -60.39453125 61.94140625 C-57.12449362 57.14535106 -56.51205282 52.59129686 -57.39453125 46.94140625 C-59.98338197 41.22436091 -63.80972838 39.17762095 -69.39453125 36.94140625 C-77.49387538 34.24162487 -86.73790133 35.40877415 -94.39453125 38.94140625 C-95.44640625 39.41578125 -96.49828125 39.89015625 -97.58203125 40.37890625 C-102.61050652 44.96040594 -105.26332451 51.54778602 -107.39453125 57.94140625 C-130.82453125 57.94140625 -154.25453125 57.94140625 -178.39453125 57.94140625 C-177.65498104 51.2854544 -176.87854294 46.60658116 -174.33203125 40.69140625 C-174.02185059 39.95978271 -173.71166992 39.22815918 -173.39208984 38.47436523 C-168.49282802 27.25351469 -162.06670005 17.62810129 -153.39453125 8.94140625 C-152.63527344 8.17054688 -151.87601563 7.3996875 -151.09375 6.60546875 C-141.76027808 -2.34610988 -130.71308045 -8.2336561 -118.39453125 -12.05859375 C-117.59917969 -12.3215625 -116.80382813 -12.58453125 -115.984375 -12.85546875 C-80.70541008 -24.09884619 -29.58721579 -25.43631766 0 0 Z " fill="#FEFEFE" transform="translate(4838.39453125,217.05859375)"/>
<path d="M0 0 C60.39 0 120.78 0 183 0 C180.75827144 10.08777853 180.75827144 10.08777853 179.703125 14.21484375 C179.35302368 15.59518799 179.35302368 15.59518799 178.99584961 17.00341797 C178.62665405 18.45578857 178.62665405 18.45578857 178.25 19.9375 C175.7771873 29.7233948 173.45461239 39.53636674 171.26855469 49.39038086 C169.16390586 58.71821476 166.57171876 67.74181248 164 77 C130.67 77 97.34 77 63 77 C62.34 80.63 61.68 84.26 61 88 C60.40288537 90.62758664 59.78000409 93.24952398 59.125 95.86328125 C58.95500488 96.54376022 58.78500977 97.2242392 58.60986328 97.92533875 C58.25528078 99.341359 57.89899685 100.75695429 57.54101562 102.17211914 C56.99678306 104.32522693 56.45895275 106.47986321 55.921875 108.63476562 C54.44940433 114.50111279 52.91510826 120.25467522 51 126 C79.05 126 107.1 126 136 126 C135.36106419 131.75042233 134.86486139 136.10161476 133.328125 141.44140625 C131.38926131 148.39184872 129.6646827 155.38518021 127.984375 162.40234375 C127.6333371 163.86650475 127.6333371 163.86650475 127.27520752 165.36024475 C126.43175568 168.88558638 125.59103041 172.41157991 124.75 175.9375 C122.8525 183.878125 120.955 191.81875 119 200 C90.62 200 62.24 200 33 200 C32.34 203.96 31.68 207.92 31 212 C30.47090243 214.36931806 29.9100483 216.73205125 29.30078125 219.08203125 C28.98197998 220.32895752 28.66317871 221.57588379 28.3347168 222.8605957 C28.16805511 223.50453278 28.00139343 224.14846985 27.8296814 224.81192017 C24.41231565 238.03109829 21.27994754 251.29955162 18.34692383 264.6340332 C16.95523922 270.92725383 15.45715262 277.15562892 13.72094727 283.36254883 C12.49156537 287.86001331 11.43837803 292.3984512 10.375 296.9375 C9.9454735 298.75915255 9.51579209 300.58076859 9.0859375 302.40234375 C8.9007959 303.19116943 8.7156543 303.97999512 8.52490234 304.79272461 C8.03197697 306.86553312 7.51674949 308.93300205 7 311 C-20.06 311 -47.12 311 -75 311 C-72.50709359 299.78192114 -69.98145032 288.59593981 -67.25 277.4375 C-66.90345411 276.01567172 -66.55710512 274.59379543 -66.2109375 273.171875 C-65.49619296 270.23663287 -64.78062778 267.30159272 -64.06445312 264.36669922 C-62.53470069 258.09488848 -61.01540244 251.82054633 -59.49569702 245.54629517 C-58.66553734 242.11929912 -57.83470119 238.69246709 -57.00390625 235.265625 C-56.75668571 234.24581291 -56.75668571 234.24581291 -56.50447083 233.20539856 C-55.49471443 229.04014188 -54.4846358 224.87496346 -53.47433472 220.70983887 C-49.85599385 205.79260826 -46.24332828 190.87405038 -42.64428711 175.95214844 C-40.2669412 166.09843632 -37.87926545 156.24724932 -35.48974609 146.39648438 C-33.15374202 136.76578683 -30.82354946 127.13371191 -28.5 117.5 C-25.83811247 106.46349829 -23.16604563 95.42949721 -20.48974609 84.39648438 C-18.153742 74.76578678 -15.82359024 65.13370211 -13.5 55.5 C-11.07826525 45.46089778 -8.65208019 35.42288304 -6.22021484 25.38623047 C-5.86969129 23.93947744 -5.51926543 22.49270074 -5.16894531 21.04589844 C-4.67933714 19.02401555 -4.1893333 17.00222894 -3.69921875 14.98046875 C-3.41908936 13.82442139 -3.13895996 12.66837402 -2.8503418 11.47729492 C-1.91395731 7.64814642 -0.95607021 3.82428083 0 0 Z " fill="#FEFEFD" transform="translate(2799,124)"/>
<path d="M0 0 C1.25956778 1.07219406 2.50967863 2.15559879 3.75 3.25 C4.56210937 3.86617187 5.37421875 4.48234375 6.2109375 5.1171875 C20.73986017 17.32148254 28.70226573 38.76188484 30.75 57.25 C31.78976339 70.0834699 31.97738533 82.84747119 31 95.6875 C30.92612061 96.67854736 30.85224121 97.66959473 30.77612305 98.69067383 C29.96381329 108.02348106 28.30332259 116.93006448 26.75 126.25 C-19.45 126.25 -65.65 126.25 -113.25 126.25 C-113.88420841 147.00916281 -113.88420841 147.00916281 -106.25 165.25 C-98.42551938 171.70644776 -90.15179772 173.03863876 -80.25 172.25 C-73.1855188 171.02631257 -66.49497078 168.21598297 -61.25 163.25 C-60.93286041 162.54328659 -60.61572083 161.83657318 -60.28897095 161.10844421 C-58.89976081 158.21692424 -57.66438516 156.3840704 -55.25 154.25 C-49.89389053 152.95114196 -44.59804827 153.20093741 -39.1328125 153.37109375 C-37.54958726 153.38789399 -35.96631501 153.4006985 -34.38302612 153.40968323 C-30.22905773 153.44393945 -26.0779521 153.53224056 -21.92510986 153.63201904 C-17.68223806 153.72432824 -13.43890044 153.76524192 -9.1953125 153.81054688 C-0.87889898 153.90687804 7.43519378 154.06033858 15.75 154.25 C11.52138932 176.28382234 -6.04861243 196.7651575 -23.8347168 209.49633789 C-36.69579054 218.19861931 -51.20074018 223.65680154 -66.25 227.25 C-67.03125244 227.43836426 -67.81250488 227.62672852 -68.61743164 227.82080078 C-76.33577106 229.45848666 -83.98634003 229.55567808 -91.8371582 229.51074219 C-94.04862198 229.50006699 -96.25926461 229.51067023 -98.47070312 229.5234375 C-124.7574826 229.55184494 -147.09683884 222.63465036 -166.4296875 204.16796875 C-184.14574289 185.59023751 -189.38345438 160.08085568 -189.25 135.25 C-188.00160727 101.44307902 -179.15760695 65.11223214 -159.25 37.25 C-158.54746094 36.25226563 -157.84492188 35.25453125 -157.12109375 34.2265625 C-141.10436335 12.12881234 -119.00160329 -5.79323884 -92.25 -12.75 C-91.14140625 -13.04777344 -90.0328125 -13.34554687 -88.890625 -13.65234375 C-60.18564343 -20.00844681 -24.03280915 -18.41063634 0 0 Z " fill="#FEFEFE" transform="translate(4200.25,213.75)"/>
<path d="M0 0 C9.14623114 7.01003656 14.09956999 17.76628824 16.97265625 28.6328125 C17.3284375 29.85355469 17.68421875 31.07429688 18.05078125 32.33203125 C22.04128766 48.60515507 18.33249232 66.58534148 14.97265625 82.6328125 C14.75303223 83.71159668 14.5334082 84.79038086 14.30712891 85.90185547 C11.33596394 100.47170829 7.98522538 114.93676932 4.44482422 129.37792969 C2.5827767 136.99870484 0.87785727 144.63176891 -0.68457031 152.31884766 C-1.60410676 156.78755851 -2.67665081 161.1728264 -3.90234375 165.5703125 C-6.52847021 175.10675602 -8.45702289 184.79493628 -10.50390625 194.46875 C-11.9072141 201.09558083 -13.35240786 207.71187092 -14.83984375 214.3203125 C-15.04665771 215.25238525 -15.25347168 216.18445801 -15.46655273 217.14477539 C-15.65805908 217.99031982 -15.84956543 218.83586426 -16.046875 219.70703125 C-16.21292236 220.44526123 -16.37896973 221.18349121 -16.55004883 221.9440918 C-17.02734375 223.6328125 -17.02734375 223.6328125 -18.02734375 224.6328125 C-20.3278821 224.72724585 -22.63136548 224.75023378 -24.93383789 224.74633789 C-25.65574814 224.74648392 -26.37765839 224.74662994 -27.1214447 224.7467804 C-29.51849322 224.74608119 -31.91546498 224.73828845 -34.3125 224.73046875 C-35.97016864 224.7286046 -37.62783782 224.72718068 -39.2855072 224.72618103 C-43.65688589 224.72235562 -48.02823156 224.71252515 -52.39959717 224.70147705 C-56.85688836 224.69126342 -61.31418486 224.68668351 -65.77148438 224.68164062 C-74.52345268 224.6709029 -83.27539411 224.65382621 -92.02734375 224.6328125 C-90.89211401 218.18253149 -89.67743254 211.77439385 -88.1796875 205.3984375 C-88.00727036 204.65467361 -87.83485321 203.91090973 -87.6572113 203.14460754 C-87.28758533 201.5516312 -86.9167764 199.95892894 -86.54486084 198.3664856 C-85.94949131 195.81707228 -85.35742199 193.2669108 -84.76611328 190.71655273 C-83.7281262 186.24154952 -82.68757338 181.76714754 -81.64630127 177.29290771 C-79.8938536 169.76140919 -78.14563948 162.22893466 -76.40234375 154.6953125 C-76.21579224 153.88950745 -76.02924072 153.08370239 -75.83703613 152.253479 C-72.91271149 139.60921697 -70.08085675 126.94680358 -67.35473633 114.25830078 C-66.04636717 108.18999343 -64.68047428 102.15629773 -63.12231445 96.14746094 C-60.87638291 87.38616538 -58.30161311 75.92952323 -62.71484375 67.4453125 C-66.49560704 62.84708687 -70.63332053 59.06079783 -76.69140625 58.296875 C-86.01761954 58.17383789 -94.3124082 60.02134786 -101.3046875 66.55078125 C-111.42249779 78.77933655 -115.34064172 94.01875424 -118.90234375 109.1328125 C-119.25431721 110.60522011 -119.60661757 112.07754961 -119.95922852 113.54980469 C-122.30309574 123.37758823 -124.51379406 133.23208407 -126.66748047 143.10327148 C-128.98509294 153.63780324 -131.54468911 164.10948927 -134.11328125 174.58493042 C-136.88606846 185.89372097 -139.58986614 197.21331086 -142.17578125 208.56665039 C-142.39363281 209.5230542 -142.61148438 210.47945801 -142.8359375 211.46484375 C-143.01954834 212.27671143 -143.20315918 213.0885791 -143.39233398 213.92504883 C-144.23157873 217.50369683 -145.13584622 221.0668224 -146.02734375 224.6328125 C-170.44734375 224.6328125 -194.86734375 224.6328125 -220.02734375 224.6328125 C-217.73398795 209.72599982 -217.73398795 209.72599982 -215.85546875 202.5625 C-215.65269821 201.76669525 -215.44992767 200.9708905 -215.24101257 200.15097046 C-214.81196017 198.46789951 -214.38042657 196.78545928 -213.94650269 195.1036377 C-212.79866902 190.65092044 -211.67186297 186.192911 -210.546875 181.734375 C-210.32467789 180.85430786 -210.10248077 179.97424072 -209.87355042 179.06750488 C-208.10676113 172.03192042 -206.49042198 164.9749581 -204.96484375 157.8828125 C-202.55536905 146.70886279 -199.80761141 135.63798755 -197.00119019 124.55895996 C-194.35844844 114.11321669 -191.8550294 103.65408797 -189.52734375 93.1328125 C-186.87532496 81.14875563 -183.96496242 69.24930117 -180.94937134 57.35269165 C-177.9038341 45.32423366 -175.06229202 33.26386856 -172.41015625 21.14257812 C-170.51679056 12.54631731 -168.30169793 4.16164067 -166.02734375 -4.3671875 C-143.58734375 -4.3671875 -121.14734375 -4.3671875 -98.02734375 -4.3671875 C-101.02734375 11.6328125 -101.02734375 11.6328125 -103.02734375 18.6328125 C-103.02734375 19.9528125 -103.02734375 21.2728125 -103.02734375 22.6328125 C-102.17914063 21.73820312 -101.3309375 20.84359375 -100.45703125 19.921875 C-73.41298309 -8.14630342 -35.12998776 -23.69074319 0 0 Z " fill="#FEFEFE" transform="translate(5077.02734375,210.3671875)"/>
<path d="M0 0 C10.27082805 8.07257529 17.6715207 20.6195735 19.71875 33.5078125 C21.60089474 50.18570617 20.29865224 66.75984693 16.65039062 83.07568359 C15.9377398 86.27993717 15.27144936 89.49195802 14.609375 92.70703125 C12.08567412 104.85718527 9.33677236 116.94184386 6.39331055 128.99658203 C4.11862907 138.3668898 2.01849353 147.77273539 -0.0625 157.1875 C-0.23436829 157.9643515 -0.40623657 158.741203 -0.58331299 159.54159546 C-1.42036265 163.32542174 -2.25652964 167.10944238 -3.09228516 170.89355469 C-8.84473563 196.9282677 -8.84473563 196.9282677 -12.0078125 208.125 C-13.5221673 214.03933054 -14.72079829 220.03039204 -16 226 C-40.42 226 -64.84 226 -90 226 C-88.87604841 214.7604841 -88.87604841 214.7604841 -87.65234375 209.91015625 C-87.38115723 208.81525879 -87.1099707 207.72036133 -86.83056641 206.59228516 C-86.38849854 204.8450415 -86.38849854 204.8450415 -85.9375 203.0625 C-85.29626143 200.46789883 -84.65664994 197.87295409 -84.01953125 195.27734375 C-83.85366516 194.60376831 -83.68779907 193.93019287 -83.51690674 193.23620605 C-81.63155211 185.55260806 -79.87560748 177.84020594 -78.125 170.125 C-77.45336779 167.16921563 -76.78139833 164.21350797 -76.109375 161.2578125 C-75.93937485 160.50968796 -75.76937469 159.76156342 -75.59422302 158.99076843 C-73.92710168 151.66224785 -72.23262286 144.34013478 -70.53637695 137.01831055 C-69.2090812 131.28783999 -67.89187927 125.55505791 -66.57511902 119.82215881 C-65.58153592 115.50295589 -64.57470575 111.18725503 -63.55126953 106.87503052 C-62.83734433 103.85636225 -62.1390274 100.83406956 -61.4375 97.8125 C-61.06020752 96.25692383 -61.06020752 96.25692383 -60.67529297 94.66992188 C-58.62302131 85.71723716 -56.90983125 75.88889942 -61.80078125 67.6171875 C-65.03156579 63.26036405 -68.76723211 61.14169481 -74 60 C-83.63651114 58.95406898 -90.03336057 60.81720122 -97.89453125 66.328125 C-107.09583988 74.22089538 -111.66977006 88.30180652 -114.43115234 99.671875 C-115.12612515 102.51619287 -115.8547397 105.351275 -116.58203125 108.1875 C-122.1905343 130.19391633 -127.18240597 152.33597803 -132.16821289 174.48974609 C-136.04049593 191.67627679 -140.02965686 208.83590119 -144 226 C-168.75 226 -193.5 226 -219 226 C-215.77154135 211.79478195 -212.51151033 197.60470223 -209.125 183.4375 C-208.68636368 181.59791908 -208.24780703 179.75831916 -207.80932617 177.91870117 C-205.61221771 168.70767054 -203.39761828 159.50117551 -201.16040039 150.29980469 C-198.56307705 139.61734956 -196.07208302 128.91949957 -193.6875 118.1875 C-190.77963657 105.11380615 -187.56263469 92.1290588 -184.27868652 79.14523315 C-181.42431693 67.84923715 -178.72762279 56.5414045 -176.26855469 45.15161133 C-174.09643848 35.19966308 -171.65735337 25.31886199 -169.1875 15.4375 C-168.88560257 14.22507629 -168.88560257 14.22507629 -168.5776062 12.98815918 C-168.00656397 10.69837087 -167.43183797 8.40954634 -166.85546875 6.12109375 C-166.68283508 5.42976852 -166.51020142 4.7384433 -166.33233643 4.02616882 C-165.11603761 -0.76792479 -165.11603761 -0.76792479 -164 -3 C-141.89 -3 -119.78 -3 -97 -3 C-97.67804116 3.10237041 -98.48215035 8.53384901 -100.0625 14.375 C-101.5091295 19.60990421 -101.5091295 19.60990421 -102 25 C-101.61070312 24.52691406 -101.22140625 24.05382812 -100.8203125 23.56640625 C-76.74365008 -4.89287445 -34.04479031 -23.55679846 0 0 Z " fill="#FEFEFE" transform="translate(3269,209)"/>
<path d="M0 0 C11.91721071 9.37719208 17.41343089 22.34411383 20 37 C21.58211854 57.75073365 18.62869709 76.82093071 14 97 C13.51534558 99.1679063 13.03095706 101.33587207 12.546875 103.50390625 C11.34594423 108.81681406 10.09633773 114.11736972 8.84033203 119.41748047 C7.90599591 123.40076004 6.99487701 127.3888876 6.08984375 131.37890625 C5.84231354 132.46970993 5.84231354 132.46970993 5.58978271 133.58255005 C5.25134753 135.07411349 4.91292808 136.5656805 4.57452393 138.05725098 C1.61344959 151.09953212 -1.45561273 164.1091824 -4.62988281 177.10131836 C-6.44854828 184.58724469 -8.11424354 192.088028 -9.64672852 199.63720703 C-10.91237454 205.79608527 -12.48264959 211.84203159 -14.16796875 217.8984375 C-14.88534323 220.57259403 -15.45701185 223.28505927 -16 226 C-40.42 226 -64.84 226 -90 226 C-89.383316 221.06652797 -88.78115308 216.58912549 -87.6875 211.80859375 C-87.42146973 210.63748047 -87.15543945 209.46636719 -86.88134766 208.25976562 C-86.59050293 206.99841797 -86.2996582 205.73707031 -86 204.4375 C-85.68899731 203.07623879 -85.37829599 201.71490871 -85.06787109 200.35351562 C-84.2265219 196.66965458 -83.37973759 192.98706525 -82.53112793 189.30487061 C-81.99829932 186.99261975 -81.46633095 184.68017245 -80.93457031 182.36767578 C-78.68854438 172.60298139 -76.43322854 162.84044669 -74.17480469 153.07861328 C-72.98281906 147.92631573 -71.79198733 142.77375211 -70.6015625 137.62109375 C-70.40510635 136.77111816 -70.20865021 135.92114258 -70.00624084 135.04541016 C-69.03928874 130.86051916 -68.07441328 126.67516947 -67.11401367 122.48876953 C-65.55327962 115.6902587 -63.98659802 108.89567058 -62.32421875 102.12109375 C-57.52668431 84.5790604 -57.52668431 84.5790604 -61.796875 67.58203125 C-64.8308 63.59261688 -68.33528098 61.58386592 -73 60 C-81.67904176 58.91938536 -88.85820021 59.79703933 -96 65 C-113.42715253 79.95566545 -116.65064147 106.81827628 -121.23046875 127.953125 C-123.40780878 137.95009012 -125.73961307 147.91103764 -128.0625 157.875 C-128.47819189 159.66162068 -128.89388203 161.44824176 -129.30957031 163.23486328 C-131.39469033 172.1848304 -133.50420893 181.1285441 -135.640625 190.06640625 C-137.6107898 198.31036259 -139.49955136 206.5687181 -141.29101562 214.85351562 C-141.58588867 216.18092773 -141.58588867 216.18092773 -141.88671875 217.53515625 C-142.05389404 218.302229 -142.22106934 219.06930176 -142.39331055 219.85961914 C-143 222 -143 222 -145 226 C-169.09 226 -193.18 226 -218 226 C-216.87620301 215.8858271 -216.87620301 215.8858271 -215.87109375 211.8828125 C-215.5321106 210.5064563 -215.5321106 210.5064563 -215.1862793 209.10229492 C-214.93918213 208.1197876 -214.69208496 207.13728027 -214.4375 206.125 C-212.61314523 198.71198819 -210.82129846 191.29452285 -209.140625 183.84765625 C-208.98238754 183.14654724 -208.82415009 182.44543823 -208.66111755 181.7230835 C-208.33541111 180.27876991 -208.00980501 178.8344337 -207.68429565 177.39007568 C-204.57633648 163.61073756 -201.2619508 149.89649615 -197.79330444 136.20370483 C-195.11051073 125.60191515 -192.6174157 114.9800498 -190.3059082 104.29003906 C-188.08082919 94.11521476 -185.53343536 84.03034273 -182.97613525 73.93530273 C-180.29061609 63.32098789 -177.74746107 52.68859709 -175.375 42 C-173.08700489 31.69435818 -170.68271413 21.42889836 -168.125 11.1875 C-167.8264209 9.98802734 -167.5278418 8.78855469 -167.22021484 7.55273438 C-165.12993549 -0.74012902 -165.12993549 -0.74012902 -164 -3 C-141.89 -3 -119.78 -3 -97 -3 C-99.22222222 12.55555556 -99.22222222 12.55555556 -101.4140625 19.79296875 C-102.12829889 22.10267809 -102.12829889 22.10267809 -102 25 C-101.61070312 24.52691406 -101.22140625 24.05382812 -100.8203125 23.56640625 C-75.7058375 -6.11959761 -35.35610988 -21.75435674 0 0 Z " fill="#FEFEFE" transform="translate(3744,209)"/>
<path d="M0 0 C0.83402344 0.22816406 1.66804688 0.45632812 2.52734375 0.69140625 C4.73259796 1.36964788 6.85316612 2.15578241 9 3 C9.93070313 3.33644531 10.86140625 3.67289063 11.8203125 4.01953125 C28.91969732 10.55753133 42.7362812 23.48265589 50.43359375 40.09375 C57.00373374 56.15842463 59.428805 73.855975 56 91 C32.57 91 9.14 91 -15 91 C-15.33 86.05 -15.66 81.1 -16 76 C-18.81201809 68.89184317 -21.16902369 64.30166934 -28.23828125 60.93359375 C-35.35266213 58.52859088 -43.66776746 58.89587911 -50.4375 62.125 C-51.986906 63.0364153 -53.5109382 63.99300856 -55 65 C-55.63421875 65.4228125 -56.2684375 65.845625 -56.921875 66.28125 C-62.38145349 70.43632744 -65.63237228 76.12284201 -69 82 C-69.45375 82.77085937 -69.9075 83.54171875 -70.375 84.3359375 C-81.9572532 105.54593867 -88.11664348 137.21322492 -82.6875 160.875 C-80.41470615 168.38050528 -77.99938482 172.80817308 -71.29296875 177.08984375 C-65.3237177 179.45923982 -55.83347636 178.93027105 -49.6875 177.0625 C-36.05521313 170.72259366 -31.43588417 158.04612202 -26 145 C-1.91 145 22.18 145 47 145 C36.70695762 179.31014128 19.43158812 211.13335028 -13 229 C-18.21550347 231.62142441 -23.57816595 233.84539494 -29 236 C-30.17755859 236.49113281 -30.17755859 236.49113281 -31.37890625 236.9921875 C-56.82362602 246.6522181 -89.074107 244.14093567 -113.7734375 233.84375 C-133.4461165 224.6590292 -146.75244113 208.38958419 -154.78515625 188.5859375 C-167.89677606 149.8834713 -158.21560261 103.1235749 -140.7734375 67.390625 C-136.57343014 59.03496381 -131.87427827 51.30286863 -126 44 C-125.59023926 43.4848584 -125.18047852 42.9697168 -124.75830078 42.43896484 C-115.86381652 31.321684 -106.04573485 21.71365722 -94 14 C-93.09894531 13.41476563 -92.19789063 12.82953125 -91.26953125 12.2265625 C-65.07875459 -3.96152888 -29.61202937 -8.20665437 0 0 Z " fill="#FEFEFE" transform="translate(3941,201)"/>
<path d="M0 0 C23.76 0 47.52 0 72 0 C71.33075041 5.35399669 70.59141247 10.24337435 69.3984375 15.453125 C69.2410611 16.14369492 69.08368469 16.83426483 68.92153931 17.54576111 C68.41036819 19.78152984 67.8930114 22.01580705 67.375 24.25 C67.01820411 25.80118239 66.66143356 27.3523706 66.3046875 28.90356445 C63.05324752 42.9835682 59.55714956 56.99372361 56 71 C65.57 71 75.14 71 85 71 C82.5970351 82.7264687 80.02195389 94.40361672 77.3125 106.0625 C77.1564328 106.73782776 77.0003656 107.41315552 76.83956909 108.10894775 C76.39195737 110.04333806 75.94020172 111.97676804 75.48828125 113.91015625 C75.22571533 115.03558838 74.96314941 116.16102051 74.69262695 117.32055664 C74 120 74 120 73 122 C63.1 122 53.2 122 43 122 C42.67 124.64 42.34 127.28 42 130 C41.59560466 132.1063458 41.16163927 134.20727521 40.6953125 136.30078125 C40.44136719 137.44353516 40.18742187 138.58628906 39.92578125 139.76367188 C39.66152344 140.93478516 39.39726563 142.10589844 39.125 143.3125 C38.86847656 144.47201172 38.61195312 145.63152344 38.34765625 146.82617188 C37.17920694 152.04896416 35.96524542 157.24002008 34.5234375 162.39453125 C32.59030804 169.32737322 31.06097727 176.35145343 29.5 183.375 C29.05403836 185.37088503 28.60734963 187.36660532 28.16021729 189.36222839 C27.72299236 191.31697079 27.2887276 193.27237453 26.85449219 195.2277832 C26.2963558 197.69171617 25.71965805 200.1515381 25.12207031 202.60620117 C23.72037845 208.37760521 22.61223559 213.61796586 22.75 219.5625 C22.76546875 220.69816406 22.7809375 221.83382812 22.796875 223.00390625 C23.03854918 226.58308357 23.03854918 226.58308357 24 230 C26.36186139 231.26145768 26.36186139 231.26145768 29 232 C29.99 232.33 30.98 232.66 32 233 C33.33363703 233.14403348 34.67218046 233.24590423 36.01171875 233.31640625 C36.76904297 233.35830078 37.52636719 233.40019531 38.30664062 233.44335938 C39.09232422 233.48267578 39.87800781 233.52199219 40.6875 233.5625 C41.88342773 233.62727539 41.88342773 233.62727539 43.10351562 233.69335938 C45.06881447 233.79927368 47.03438496 233.90012551 49 234 C45.73185203 256.29830123 39.47171302 278.16240976 34 300 C21.90999662 302.15161077 9.9155195 303.33064124 -2.36254883 303.421875 C-4.38049914 303.43707077 -6.39828914 303.47022795 -8.41601562 303.50390625 C-23.26206421 303.47410987 -36.00180165 300.51180925 -47.0234375 290.0859375 C-56.35524902 280.20287973 -58.4762113 268.23149827 -58.2421875 255.03515625 C-57.474714 239.20316587 -52.63838022 223.47889196 -48.98242188 208.13134766 C-47.99612584 203.98912502 -47.02020789 199.8445042 -46.046875 195.69921875 C-45.88408051 195.00605057 -45.72128601 194.31288239 -45.55355835 193.59870911 C-45.22267814 192.18978306 -44.8918168 190.78085258 -44.56097412 189.37191772 C-43.72670716 185.82058822 -42.8908576 182.26963182 -42.0546875 178.71875 C-41.88756256 178.00901535 -41.72043762 177.2992807 -41.54824829 176.56803894 C-40.49021987 172.07659214 -39.42962684 167.58575704 -38.36750793 163.09527588 C-37.64650511 160.04623874 -36.92658002 156.99694759 -36.20675659 153.94763184 C-35.86755454 152.51203865 -35.52783512 151.07656758 -35.18753052 149.64123535 C-33.00844331 140.44991693 -30.95056205 131.24266325 -29 122 C-37.58 122 -46.16 122 -55 122 C-52.74771278 109.61242029 -52.74771278 109.61242029 -51.6328125 104.984375 C-51.26663818 103.45864868 -51.26663818 103.45864868 -50.89306641 101.90209961 C-50.63960449 100.86190674 -50.38614258 99.82171387 -50.125 98.75 C-49.86251465 97.66404541 -49.6000293 96.57809082 -49.32958984 95.45922852 C-47.33874737 87.2712039 -45.22436152 79.12747478 -43 71 C-34.09 71 -25.18 71 -16 71 C-15.34 67.7 -14.68 64.4 -14 61 C-13.51934805 58.84735373 -13.02724866 56.69720509 -12.51953125 54.55078125 C-12.24173828 53.36935547 -11.96394531 52.18792969 -11.67773438 50.97070312 C-11.39220703 49.76349609 -11.10667969 48.55628906 -10.8125 47.3125 C-7.0902678 31.56736766 -3.5640366 15.78359066 0 0 Z " fill="#FEFEFD" transform="translate(1010,135)"/>
<path d="M0 0 C24.42 0 48.84 0 74 0 C72.72037013 8.31759416 71.35793455 16.21241589 69.3125 24.3125 C66.84036129 34.34329171 64.55978625 44.4037864 62.375 54.5 C58.69933562 71.46414983 58.69933562 71.46414983 56.9375 78.8125 C54.92272379 87.22766444 53.05717249 95.67456759 51.19311523 104.12426758 C49.73667672 110.71900944 48.24589994 117.30455188 46.72094727 123.88378906 C45.63307924 128.58597243 44.5668275 133.29300711 43.5 138 C41.95000839 144.83008173 40.39129143 151.6578793 38.80859375 158.48046875 C38.1478231 161.35657674 37.49550362 164.23424964 36.84765625 167.11328125 C34.95929047 175.49331404 33.07076896 183.86594409 30.9375 192.1875 C29.26942979 198.74589651 27.85704007 205.3353467 26.49316406 211.96289062 C25.37084763 217.36824443 24.08665839 222.71036044 22.7043457 228.0559082 C20.66982488 236.07770568 18.98389821 244.17901827 17.23873901 252.26739502 C14.79880344 263.55533089 12.18199616 274.78639521 9.3972168 285.99487305 C7.34684073 294.30943831 5.68450624 302.5774688 4 311 C-20.75 311 -45.5 311 -71 311 C-68.09031001 297.61542603 -65.1813368 284.24056802 -62.10693359 270.89428711 C-61.88575867 269.93344208 -61.66458374 268.97259705 -61.43670654 267.9826355 C-61.21009338 266.99836578 -60.98348022 266.01409607 -60.75 265 C-60.26764629 262.90049374 -59.785389 260.80096532 -59.30322266 258.70141602 C-57.87094113 252.4671206 -56.43593971 246.23345373 -55 240 C-54.79121216 239.09352722 -54.58242432 238.18705444 -54.36730957 237.25311279 C-53.03766454 231.48098223 -51.70681758 225.70912966 -50.375 219.9375 C-50.19394714 219.1528537 -50.01289429 218.3682074 -49.82635498 217.55978394 C-47.97897075 209.55503573 -46.12871638 201.55096867 -44.27026367 193.54878235 C-43.30388374 189.3869874 -42.33901764 185.22484273 -41.375 181.0625 C-41.18663574 180.24935333 -40.99827148 179.43620667 -40.80419922 178.59841919 C-38.0935735 166.88341172 -35.4855558 155.14954734 -32.94769287 143.39602661 C-30.67041261 132.86520072 -28.19136243 122.39468377 -25.62451172 111.93115234 C-23.44292664 102.98190301 -21.43975445 94.00383792 -19.5 85 C-17.04735109 73.61543883 -14.41216032 62.29074304 -11.63598633 50.97973633 C-9.0142706 40.22619563 -6.63638782 29.42564345 -4.30859375 18.60546875 C-4.0353125 17.33703125 -3.76203125 16.06859375 -3.48046875 14.76171875 C-3.24223389 13.64756592 -3.00399902 12.53341309 -2.75854492 11.38549805 C-1.90477641 7.57500304 -0.94709441 3.78837763 0 0 Z " fill="#FEFEFD" transform="translate(2559,124)"/>
<path d="M0 0 C24.42 0 48.84 0 74 0 C73.27034694 4.37791838 72.45835806 8.65825601 71.51171875 12.98828125 C71.36865295 13.64380981 71.22558716 14.29933838 71.07818604 14.97473145 C70.61634445 17.08770197 70.1520855 19.20013122 69.6875 21.3125 C69.52871368 22.03674164 69.36992737 22.76098328 69.20632935 23.50717163 C67.2211713 32.55974797 65.18778448 41.59672097 63.02734375 50.609375 C61.61288262 56.57739578 60.31901089 62.5728398 59 68.5625 C57.44212531 75.629158 55.87240803 82.68090326 54.0625 89.6875 C51.8877597 98.17078448 50.08116946 106.73288579 48.2331543 115.29174805 C46.14232299 124.9586369 43.92734678 134.58313366 41.5625 144.1875 C38.60412816 156.22122834 35.94731751 168.30487658 33.35726929 180.42214966 C31.27888134 190.14318681 29.14819266 199.84053287 26.796875 209.5 C24.79517843 217.75023586 22.96758914 226.03785465 21.14208984 234.32861328 C19.70487962 240.85270056 18.23182071 247.36706182 16.72314453 253.875 C15.63436112 258.58007349 14.5677711 263.29012307 13.5 268 C13.06256434 269.92319172 12.62506474 271.8463689 12.1875 273.76953125 C11.51563409 276.72416656 10.8481777 279.67955078 10.1875 282.63671875 C8.03842234 292.17325087 5.49441945 301.52120607 3 311 C-21.42 311 -45.84 311 -71 311 C-68.43397588 298.1698794 -65.79293772 285.41812834 -62.8125 272.6875 C-62.42170605 271.00723857 -62.03125233 269.32689798 -61.64111328 267.64648438 C-60.83354103 264.16944401 -60.02454342 260.69274038 -59.21435547 257.21630859 C-57.25692613 248.81341265 -55.31572848 240.40676588 -53.375 232 C-53.18660553 231.18445648 -52.99821106 230.36891296 -52.80410767 229.52865601 C-50.05088369 217.60787161 -47.3393811 205.67839206 -44.65478516 193.74194336 C-42.20363223 182.8610286 -39.69959571 171.99272756 -37.18652344 161.12597656 C-33.94013273 147.08798174 -30.71534672 133.04513666 -27.5 119 C-23.23871502 100.38930182 -18.95779511 81.78324088 -14.65882874 63.18121338 C-13.29792988 57.29183455 -11.93959027 51.40186825 -10.58203125 45.51171875 C-9.97806858 42.89193244 -9.37407774 40.27215262 -8.77008057 37.65237427 C-8.3906855 36.00646746 -8.01140709 34.36053377 -7.63226318 32.71456909 C-7.10285517 30.41640116 -6.57295484 28.11834718 -6.04296875 25.8203125 C-5.82154961 24.85825142 -5.82154961 24.85825142 -5.59565735 23.87675476 C-3.75756298 15.9113527 -1.87238788 7.95764849 0 0 Z " fill="#FEFEFD" transform="translate(1374,124)"/>
<path d="M0 0 C24.42 0 48.84 0 74 0 C72.78134051 6.70262719 71.53831235 13.14168423 69.8125 19.6875 C67.56831756 28.43651001 65.59542506 37.23474118 63.6875 46.0625 C61.13822371 57.85130778 58.51278464 69.6198261 55.8125 81.375 C55.13796502 84.31248719 54.46344796 87.24997848 53.7890625 90.1875 C53.63093079 90.87612625 53.47279907 91.5647525 53.30987549 92.27424622 C51.91955897 98.33570061 50.56372095 104.40433561 49.22363281 110.47705078 C48.12902453 115.43476536 46.99615982 120.38265607 45.84765625 125.328125 C44.71930125 130.21593008 43.60999483 135.10799771 42.5 140 C40.95074958 146.82604635 39.39168137 153.64955774 37.8125 160.46875 C36.69852052 165.31027622 35.59962183 170.15519558 34.5 175 C32.94979221 181.83003314 31.3912917 188.65787815 29.80859375 195.48046875 C29.1478231 198.35657674 28.49550362 201.23424964 27.84765625 204.11328125 C25.95929047 212.49331404 24.07076896 220.86594409 21.9375 229.1875 C20.26942979 235.74589651 18.85704007 242.3353467 17.49316406 248.96289062 C16.50174822 253.7377948 15.40847456 258.4646665 14.1875 263.1875 C11.66884384 273.001228 9.58608314 282.91409938 7.46166992 292.8190918 C7.31441971 293.50162018 7.16716949 294.18414856 7.01545715 294.88735962 C6.61048647 296.76508045 6.20823161 298.64338642 5.80615234 300.52172852 C4.98975624 304.04419831 3.99334753 307.52328363 3 311 C-21.42 311 -45.84 311 -71 311 C-70.3163502 305.5308016 -69.51257494 300.38324262 -68.25 295.05859375 C-68.07616791 294.3105397 -67.90233582 293.56248566 -67.72323608 292.79176331 C-67.15252681 290.33946202 -66.57621686 287.88851242 -66 285.4375 C-65.59542808 283.70257599 -65.19130194 281.96754798 -64.78759766 280.23242188 C-63.94773493 276.6244212 -63.10595699 273.01687572 -62.26269531 269.40966797 C-60.47539442 261.75923189 -58.7066889 254.1045101 -56.94018555 246.44924927 C-56.56194 244.81011035 -56.18352071 243.17101151 -55.80493164 241.5319519 C-53.05142064 229.61007094 -50.33962976 217.67949765 -47.65478516 205.74194336 C-45.20363223 194.8610286 -42.69959571 183.99272756 -40.18652344 173.12597656 C-36.94013273 159.08798174 -33.71534672 145.04513666 -30.5 131 C-26.0559103 111.59092211 -21.5889654 92.1872309 -17.10595703 72.78710938 C-15.56091186 66.10034524 -14.01802909 59.4130822 -12.47509766 52.72583008 C-11.7107529 49.41309713 -10.94609903 46.1004358 -10.18115234 42.7878418 C-8.64444279 36.13242269 -7.10809592 29.47693597 -5.58158875 22.81916809 C-5.15139395 20.94291086 -4.72060492 19.0667899 -4.28979492 17.19067383 C-3.77961884 14.96813549 -3.27058576 12.74533432 -2.76293945 10.5222168 C-2.54210693 9.560979 -2.32127441 8.59974121 -2.09375 7.609375 C-1.90490234 6.78405273 -1.71605469 5.95873047 -1.52148438 5.10839844 C-1 3 -1 3 0 0 Z " fill="#FEFEFD" transform="translate(2446,124)"/>
<path d="M0 0 C24.42 0 48.84 0 74 0 C72.88301468 11.1698532 72.88301468 11.1698532 71.64453125 15.20703125 C69.87473855 21.31822941 68.49587393 27.4919043 67.12573242 33.70336914 C64.88741726 43.8375125 62.5680381 53.94343811 60 64 C57.69137501 73.04891668 55.59114966 82.13451129 53.5625 91.25 C51.3470716 101.20355097 49.01293738 111.11638934 46.5 121 C43.95084983 131.03100627 41.57279899 141.08840852 39.3125 151.1875 C39.16462036 151.84810425 39.01674072 152.5087085 38.86437988 153.18933105 C38.1588375 156.3433025 37.45449008 159.49753982 36.75048828 162.65185547 C35.77074735 167.02276213 34.77114535 171.38859286 33.75 175.75 C33.47671875 176.92046875 33.2034375 178.0909375 32.921875 179.296875 C32.19852682 182.20252788 31.42204173 185.07503459 30.61328125 187.95703125 C29.35939116 192.51556624 28.26746999 197.09950119 27.24609375 201.71484375 C27.09792206 202.38425995 26.94975037 203.05367615 26.79708862 203.74337769 C26.18632536 206.51400729 25.5791834 209.28539596 24.97680664 212.05786133 C24.52951172 214.11123275 24.07571631 216.16308419 23.62109375 218.21484375 C23.3573999 219.42261475 23.09370605 220.63038574 22.82202148 221.87475586 C22 225 22 225 20 229 C-4.09 229 -28.18 229 -53 229 C-51.87573158 218.88158422 -51.87573158 218.88158422 -50.8359375 214.70703125 C-50.60463135 213.76311523 -50.3733252 212.81919922 -50.13500977 211.84667969 C-49.88420654 210.84540039 -49.63340332 209.84412109 -49.375 208.8125 C-48.82842381 206.58488134 -48.28289586 204.35700529 -47.73828125 202.12890625 C-47.45291504 200.96504395 -47.16754883 199.80118164 -46.87353516 198.60205078 C-45.39250211 192.49496259 -43.98032554 186.37201223 -42.5625 180.25 C-40.2431143 170.25682699 -37.86520301 160.27988221 -35.4375 150.3125 C-33.20129832 141.12642538 -31.07607103 131.9248338 -29.0625 122.6875 C-26.74217115 112.05285535 -24.1562117 101.49848698 -21.47976685 90.94955444 C-18.89570747 80.7521533 -16.52336128 70.52356929 -14.29345703 60.24243164 C-12.0425919 49.96763507 -9.49492616 39.77578253 -6.890625 29.5859375 C-4.38899197 19.75228245 -2.20456006 9.92052028 0 0 Z " fill="#FEFEFE" transform="translate(875,206)"/>
<path d="M0 0 C24.42 0 48.84 0 74 0 C71.75298503 14.60559728 71.75298503 14.60559728 70.30078125 20.1796875 C69.98206055 21.42290771 69.66333984 22.66612793 69.33496094 23.94702148 C69.16830933 24.58678925 69.00165771 25.22655701 68.82995605 25.88571167 C67.92453306 29.36648531 67.04166821 32.85294954 66.16015625 36.33984375 C65.97935516 37.05453323 65.79855408 37.76922272 65.61227417 38.50556946 C63.69805876 46.12103194 61.95945558 53.77388676 60.25 61.4375 C60.10434601 62.08938293 59.95869202 62.74126587 59.80862427 63.41290283 C59.1159777 66.51376476 58.42478823 69.61494868 57.734375 72.71630859 C56.76157334 77.06610323 55.766376 81.41019573 54.75 85.75 C54.47671875 86.92046875 54.2034375 88.0909375 53.921875 89.296875 C53.19042928 92.23505526 52.40764243 95.14303479 51.59375 98.05859375 C49.75288341 104.76003417 48.25416129 111.52892627 46.75 118.3125 C46.13324188 121.07200369 45.51407812 123.83096498 44.89453125 126.58984375 C44.73771378 127.28881775 44.5808963 127.98779175 44.41932678 128.70794678 C38.42821019 155.36717551 32.09675008 181.95759249 25.359375 208.43798828 C23.87156195 214.32638725 22.50383178 220.19683495 21.42089844 226.17407227 C21 228 21 228 20 229 C17.69946165 229.09443335 15.39597827 229.11742128 13.09350586 229.11352539 C12.37159561 229.11367142 11.64968536 229.11381744 10.90589905 229.1139679 C8.50885053 229.11326869 6.11187877 229.10547595 3.71484375 229.09765625 C2.05717511 229.0957921 0.39950593 229.09436818 -1.25816345 229.09336853 C-5.62954214 229.08954312 -10.00088781 229.07971265 -14.37225342 229.06866455 C-18.82954461 229.05845092 -23.28684111 229.05387101 -27.74414062 229.04882812 C-36.49610893 229.0380904 -45.24805036 229.02101371 -54 229 C-51.27897072 215.73096965 -48.29243968 202.54406547 -45.125 189.375 C-44.67904615 187.51210038 -44.23332951 185.64914396 -43.7878418 183.78613281 C-41.95207043 176.11372719 -40.10714511 168.44352573 -38.26171875 160.7734375 C-37.89228149 159.23792236 -37.89228149 159.23792236 -37.51538086 157.67138672 C-37.04897345 155.7328556 -36.58234145 153.7943785 -36.11547852 151.85595703 C-33.92247208 142.72730721 -31.8005735 133.58232041 -29.67724609 124.43725586 C-27.64754084 115.71644145 -25.55639748 107.01202419 -23.4375 98.3125 C-21.20129791 89.12642368 -19.07612978 79.92482198 -17.0625 70.6875 C-14.71916064 59.95036985 -12.11709356 49.29391583 -9.41943359 38.6418457 C-6.96348266 28.94305945 -4.61955952 19.2273231 -2.45874023 9.45776367 C-2.27770752 8.64025635 -2.0966748 7.82274902 -1.91015625 6.98046875 C-1.75683838 6.27817139 -1.60352051 5.57587402 -1.44555664 4.85229492 C-1.05085511 3.21141791 -0.53369155 1.60107464 0 0 Z " fill="#FEFEFE" transform="translate(2990,206)"/>
<path d="M0 0 C5.66884081 4.29918799 8.96139595 9.40305616 10.74609375 16.32421875 C11.21493952 20.16579899 11.26905391 23.95694184 11.24609375 27.82421875 C11.24254883 28.90775635 11.23900391 29.99129395 11.23535156 31.10766602 C10.77495872 54.17901875 3.84726486 82.62217731 -13.25390625 99.32421875 C-21.64947326 105.57208257 -29.75940333 108.50354411 -40.25390625 107.32421875 C-47.46709916 105.25800397 -51.95135538 100.47167063 -55.51171875 94.05859375 C-63.33623885 76.22087659 -57.43981774 51.06587194 -50.984375 33.58984375 C-44.92135656 18.18215003 -36.7132266 5.41544203 -21.44140625 -2.05078125 C-14.10325379 -3.48963467 -6.6078446 -3.91525096 0 0 Z " fill="#ED1E25" transform="translate(734.25390625,265.67578125)"/>
<path d="M0 0 C24.42 0 48.84 0 74 0 C71.76578225 14.52241537 71.76578225 14.52241537 70.3125 20.375 C68.88806928 26.20699591 67.52882917 32.05140446 66.21875 37.91015625 C66.06246628 38.60818359 65.90618256 39.30621094 65.74516296 40.02539062 C65.10796127 42.87343813 64.47139307 45.72161579 63.83901978 48.57073975 C63.39104172 50.58803826 62.93991302 52.6046106 62.48828125 54.62109375 C62.22571533 55.8011499 61.96314941 56.98120605 61.69262695 58.19702148 C61 61 61 61 60 63 C35.25 63 10.5 63 -15 63 C-11.63052859 47.27580007 -11.63052859 47.27580007 -10.31640625 41.921875 C-9.88739014 40.16290894 -9.88739014 40.16290894 -9.44970703 38.3684082 C-9.15692871 37.1743335 -8.86415039 35.98025879 -8.5625 34.75 C-6.32138728 25.55576715 -4.12505525 16.35894534 -2.15454102 7.10253906 C-1.09962284 2.19924568 -1.09962284 2.19924568 0 0 Z " fill="#FEFEFE" transform="translate(3010,117)"/>
<path d="M0 0 C24.09 0 48.18 0 73 0 C73 4.62213008 72.78226394 7.63416707 71.71875 11.96875 C71.30689453 13.67224609 71.30689453 13.67224609 70.88671875 15.41015625 C70.59410156 16.59480469 70.30148437 17.77945313 70 19 C69.42658608 21.38529718 68.85367474 23.77071524 68.28125 26.15625 C67.39066662 29.8323585 66.49806376 33.50797325 65.60546875 37.18359375 C63.88938705 44.26715567 62.22073485 51.35764379 60.63085938 58.47070312 C60 61 60 61 59 63 C34.58 63 10.16 63 -15 63 C-13.87523254 54.00186035 -13.87523254 54.00186035 -13.01953125 50.50390625 C-12.82794434 49.71016602 -12.63635742 48.91642578 -12.43896484 48.09863281 C-12.23223145 47.26170898 -12.02549805 46.42478516 -11.8125 45.5625 C-11.36310743 43.71488602 -10.91389692 41.86722775 -10.46484375 40.01953125 C-10.22749512 39.04838379 -9.99014648 38.07723633 -9.74560547 37.07666016 C-8.96361093 33.84984446 -8.20052502 30.6189889 -7.44140625 27.38671875 C-7.05021606 25.72950806 -7.05021606 25.72950806 -6.65112305 24.03881836 C-6.14599434 21.89833747 -5.6434181 19.75725209 -5.14379883 17.61547852 C-4.79031372 16.12745728 -4.79031372 16.12745728 -4.4296875 14.609375 C-4.22585449 13.74280273 -4.02202148 12.87623047 -3.81201172 11.98339844 C-2.71117461 7.93883157 -1.32553248 3.97659743 0 0 Z " fill="#FEFEFE" transform="translate(896,117)"/>
<path d="M0 0 C0.95149429 -0.0033284 1.90298859 -0.0066568 2.88331604 -0.01008606 C4.90682491 -0.01516347 6.93034219 -0.01749414 8.95385742 -0.01733398 C12.02211807 -0.01949999 15.09000716 -0.03758965 18.15820312 -0.05664062 C20.12630086 -0.05957864 22.0944003 -0.0615607 24.0625 -0.0625 C25.42404457 -0.07327827 25.42404457 -0.07327827 26.81309509 -0.08427429 C36.23090232 -0.05123277 47.02240949 0.85434868 54.19921875 7.65625 C59.62588389 13.90466729 59.12407507 20.27179451 58.62890625 28.16796875 C57.00506615 37.39758932 54.08229585 45.95233605 46.54296875 51.85546875 C36.848839 58.50287201 27.12245815 59.47459419 15.59375 59.36328125 C13.91485435 59.35903641 13.91485435 59.35903641 12.20204163 59.35470581 C8.6567172 59.34358607 5.11165324 59.31849665 1.56640625 59.29296875 C-0.8496057 59.28292835 -3.26562165 59.27380436 -5.68164062 59.265625 C-11.57821261 59.24367365 -17.47463456 59.21027854 -23.37109375 59.16796875 C-22.84485941 54.63135116 -22.26282965 50.23719992 -21.171875 45.796875 C-20.8164563 44.33411133 -20.8164563 44.33411133 -20.45385742 42.84179688 C-20.19967041 41.81505859 -19.9454834 40.78832031 -19.68359375 39.73046875 C-19.14426396 37.5235028 -18.60521013 35.3164694 -18.06640625 33.109375 C-17.78829102 31.97516113 -17.51017578 30.84094727 -17.22363281 29.67236328 C-16.35963291 26.12085852 -15.51472737 22.56531345 -14.67578125 19.0078125 C-14.40467529 17.86175537 -14.13356934 16.71569824 -13.85424805 15.53491211 C-13.329942 13.31622395 -12.80791354 11.09699614 -12.28833008 8.87719727 C-12.05138428 7.88002686 -11.81443848 6.88285645 -11.5703125 5.85546875 C-11.36237061 4.97246094 -11.15442871 4.08945312 -10.94018555 3.1796875 C-9.55694942 -1.71000176 -4.23230691 0.00508666 0 0 Z " fill="#ED1F25" transform="translate(4479.37109375,303.83203125)"/>
<path d="M0 0 C5.51349605 -0.04980921 11.02685821 -0.08591163 16.54052734 -0.10986328 C18.41229538 -0.11985894 20.28404805 -0.13345997 22.15576172 -0.15087891 C24.86169246 -0.17541268 27.56741499 -0.18654768 30.2734375 -0.1953125 C31.09677582 -0.20563507 31.92011414 -0.21595764 32.7684021 -0.22659302 C41.11348966 -0.22816865 49.4390816 0.399216 56 6 C59.15769588 10.13507794 59.44321675 13.77107294 59.3125 18.8125 C59.29340576 19.88588623 59.29340576 19.88588623 59.27392578 20.98095703 C59.01830503 30.24034348 56.92167342 37.68066453 51 45 C38.50678342 55.43653995 23.1172405 54.38645787 7.8125 54.1875 C5.79102558 54.17242767 3.76954031 54.15874378 1.74804688 54.14648438 C-3.1682401 54.11367671 -8.0839985 54.06203458 -13 54 C-11.57067684 45.46893257 -9.67152744 37.08973013 -7.625 28.6875 C-7.33367187 27.47126953 -7.04234375 26.25503906 -6.7421875 25.00195312 C-4.70729836 16.59911048 -2.43514565 8.29396929 0 0 Z " fill="#ED1E25" transform="translate(4496,195)"/>
<path d="M0 0 C8.36718385 5.12276562 12.08902993 10.2506103 15.3125 19.4375 C16.63948617 25.29737699 17.77459258 35.45081485 15.0625 40.875 C-6.3875 40.875 -27.8375 40.875 -49.9375 40.875 C-48.20645921 27.02667367 -42.46684868 14.93299543 -31.5 5.9375 C-22.16793616 -0.66477646 -11.36083275 -4.28275185 0 0 Z " fill="#ED2228" transform="translate(4145.9375,254.125)"/>
<path d="M0 0 C0.66 0 1.32 0 2 0 C0.73296569 18.37199744 -6.50563502 34.39958349 -20 47 C-22.54494008 49.04352066 -25.04713015 50.61693645 -28 52 C-28.67289062 52.31582031 -29.34578125 52.63164062 -30.0390625 52.95703125 C-37.46992523 55.91586568 -45.97235571 56.3425481 -53.5625 53.8125 C-57.87613642 50.6049242 -61.37473864 46.38299302 -62.37109375 40.9921875 C-62.61043475 33.36143332 -60.05383047 27.50058322 -55.05078125 21.765625 C-45.04181982 12.20589882 -32.62303868 9.68558199 -19.59375 6.421875 C-9.0490282 4.54398453 -9.0490282 4.54398453 0 0 Z " fill="#ED2026" transform="translate(486,333)"/>
<path d="M0 0 C-1.48144834 18.07366974 -8.41077494 34.71534054 -22 47 C-24.54911984 49.03644769 -27.04777477 50.61723838 -30 52 C-30.67289063 52.31582031 -31.34578125 52.63164062 -32.0390625 52.95703125 C-39.44857078 55.90736273 -47.90819802 56.31522207 -55.5 53.875 C-59.4614221 50.90393342 -62.4035406 47.78937819 -64 43 C-64.93741089 35.34703896 -63.10641926 29.37267228 -58.66796875 23.125 C-49.2770582 12.47404322 -34.6920018 9.63073974 -21.55078125 6.421875 C-15.67823013 4.96850118 -10.09165472 3.04722099 -4.44921875 0.8828125 C-2 0 -2 0 0 0 Z " fill="#ED2026" transform="translate(3436,333)"/>
<path d="M0 0 C-0.85257193 16.19886669 -8.25794987 33.03564994 -19.3984375 44.76953125 C-28.67493686 52.72280623 -37.9651865 55.38899944 -49.8984375 55.28125 C-55.33698994 54.78808152 -57.83427944 52.32325037 -61.3125 48.375 C-64.80648819 43.45753514 -64.55966946 38.90051516 -64 33 C-61.87480577 25.6002273 -56.62696063 20.12126865 -50.09716797 16.30224609 C-41.28307887 11.79321929 -32.53928904 8.76919206 -23 6.1875 C-20.94379934 5.61590239 -18.88873789 5.04033725 -16.83374023 4.46443176 C-14.99245838 3.95073811 -13.14864965 3.44612641 -11.3046875 2.94213867 C-9.08526548 2.30940008 -6.88107511 1.62082532 -4.6953125 0.88012695 C-2 0 -2 0 0 0 Z " fill="#ED2026" transform="translate(1213,333)"/>
<path d="M0 0 C-1.60644951 17.02836477 -8.79135543 35.48712822 -22.1171875 46.796875 C-31.33635317 53.42417559 -41.64744792 56.68457224 -53 55 C-57.42004428 53.37447511 -60.1222302 51.12464255 -63 47.4375 C-64.6887433 41.63244491 -65.31281552 35.44832876 -63.12109375 29.69140625 C-61.89493227 27.61542989 -60.55885601 25.83793509 -59 24 C-58.52691406 23.39542969 -58.05382813 22.79085938 -57.56640625 22.16796875 C-48.81521349 12.15101744 -34.8688707 9.64908418 -22.5534668 6.53515625 C-16.26002343 4.938503 -10.20760683 3.09853563 -4.14892578 0.75634766 C-2 0 -2 0 0 0 Z " fill="#ED1F26" transform="translate(2285,333)"/>
<path d="M0 0 C-0.07152906 14.87804458 -7.69703221 31.69372172 -17.75 42.375 C-26.73961894 50.87869359 -37.110547 54.55853307 -49.37890625 54.3203125 C-54.29331766 53.71974359 -57.53177248 51.61505027 -60.875 47.9375 C-63.92284652 42.688431 -63.62185477 36.87469861 -63 31 C-60.23976412 22.23456801 -53.06703526 17.10578347 -45.3125 12.8125 C-40.15506669 10.4205006 -34.64848537 9.09535026 -29.17919922 7.60791016 C-24.87169969 6.40628862 -20.59408451 5.10282999 -16.3125 3.8125 C-15.43883789 3.55033691 -14.56517578 3.28817383 -13.66503906 3.01806641 C-3.62844249 0 -3.62844249 0 0 0 Z " fill="#ED1E25" transform="translate(4767,334)"/>
</svg>
